<?xml version="1.0" encoding="UTF-8"?>
<svg version="1.1" xmlns="http://www.w3.org/2000/svg" width="321" height="314">
<path d="M0 0 C2.78991707 2.23116825 5.48764884 4.53223014 8.16015625 6.90234375 C8.85882813 7.505625 9.5575 8.10890625 10.27734375 8.73046875 C23.11508904 20.58862705 33.52641253 39.46225647 34.49609375 57.09375 C34.52503793 58.55055192 34.5375591 60.0077563 34.53515625 61.46484375 C34.53717041 62.24279297 34.53918457 63.02074219 34.54125977 63.82226562 C34.44981234 69.13379187 33.6366642 73.83009272 32.09765625 78.90234375 C29.7578001 86.74086184 29.32212386 92.72627898 33.03515625 100.15234375 C36.02868866 105.10318581 39.72888425 109.58088165 43.41357422 114.03027344 C45.79234276 116.9404777 47.58659744 119.1597324 48.16015625 122.90234375 C46.14402774 128.51870174 41.20285467 130.41799547 36.16015625 132.90234375 C36.08337117 136.12731731 36.16497449 138.92468286 36.84765625 142.08984375 C37.16015625 144.90234375 37.16015625 144.90234375 35.72265625 146.77734375 C35.20703125 147.14859375 34.69140625 147.51984375 34.16015625 147.90234375 C34.67578125 148.29421875 35.19140625 148.68609375 35.72265625 149.08984375 C37.16015625 150.90234375 37.16015625 150.90234375 37.09765625 153.27734375 C35.98040389 156.40565037 34.23604479 158.32320951 32.16015625 160.90234375 C29.86008323 166.52294472 29.87993809 171.75810165 29.796875 177.7578125 C29.16015625 180.90234375 29.16015625 180.90234375 27.1875 182.828125 C23.00819674 184.31110357 19.42408436 184.18277565 15.03515625 183.90234375 C14.16439453 183.85400391 13.29363281 183.80566406 12.39648438 183.75585938 C3.64480264 183.11948799 -4.59145981 181.01503417 -12.95898438 178.45898438 C-14.90730149 177.88237962 -16.86568778 177.38218854 -18.83984375 176.90234375 C-22.57601441 183.71653775 -23.36847376 189.26501057 -23.08984375 196.96484375 C-23.07179687 197.92583984 -23.05375 198.88683594 -23.03515625 199.87695312 C-22.98853171 202.21983602 -22.92312544 204.56052665 -22.83984375 206.90234375 C-33.47260711 206.65157103 -43.84222635 205.78023538 -54.33984375 204.02734375 C-55.31695312 203.86588867 -56.2940625 203.70443359 -57.30078125 203.53808594 C-63.1617851 202.51558696 -68.81299655 201.15301533 -74.50830078 199.42895508 C-77.00313218 198.7112145 -77.00313218 198.7112145 -80.21484375 199.46484375 C-82.83984375 199.90234375 -82.83984375 199.90234375 -85.52734375 198.33984375 C-87.83984375 195.90234375 -87.83984375 195.90234375 -89.2265625 193.03125 C-90.84558867 189.89120167 -92.50301464 187.90829166 -94.96484375 185.40234375 C-102.43411722 177.29042175 -115.83984375 160.65528276 -115.83984375 148.90234375 C-116.43796875 148.84046875 -117.03609375 148.77859375 -117.65234375 148.71484375 C-119.83984375 147.90234375 -119.83984375 147.90234375 -121.71484375 145.65234375 C-122.83984375 142.90234375 -122.83984375 142.90234375 -121.88647461 140.59912109 C-120.63936575 137.38578671 -120.82799645 135.41132037 -121.21875 132.00390625 C-122.03657005 123.48464717 -121.85815141 115.03275236 -121.71289062 106.484375 C-121.69645508 104.69193359 -121.69645508 104.69193359 -121.6796875 102.86328125 C-121.65442993 101.25138916 -121.65442993 101.25138916 -121.62866211 99.60693359 C-121.63582272 96.67944284 -121.63582272 96.67944284 -123.83984375 93.90234375 C-123.38701356 87.44951356 -123.38701356 87.44951356 -120.83984375 84.90234375 C-119.84984375 84.90234375 -118.85984375 84.90234375 -117.83984375 84.90234375 C-117.70449219 84.22171875 -117.56914062 83.54109375 -117.4296875 82.83984375 C-115.82153599 75.59834712 -113.40820007 69.20278999 -110.08959961 62.59960938 C-107.87314747 57.94476632 -107.67556682 54.90226634 -108.83984375 49.90234375 C-123.37663113 47.52044146 -123.37663113 47.52044146 -137.83984375 48.90234375 C-140.06962371 50.88135949 -140.06962371 50.88135949 -141.83984375 52.90234375 C-146.24752512 53.6236007 -148.09921863 53.42235713 -151.77734375 50.83984375 C-153.83984375 47.90234375 -153.83984375 47.90234375 -154.52734375 44.40234375 C-153.81892443 40.79584539 -153.57148493 40.22564064 -150.96484375 37.96484375 C-147.83984375 35.90234375 -147.83984375 35.90234375 -145.83984375 35.90234375 C-145.53046875 34.68546875 -145.22109375 33.46859375 -144.90234375 32.21484375 C-138.61244602 13.69297899 -121.33675379 -0.35164993 -104.54052734 -8.86328125 C-72.25254769 -24.62736338 -29.1091071 -21.50150002 0 0 Z M-128.02734375 15.15234375 C-133.07003116 21.05978954 -139.49601612 29.08543094 -140.83984375 36.90234375 C-137.26753102 35.56358028 -133.91012833 33.94580686 -130.52685547 32.18676758 C-117.06539239 25.22263827 -103.9562879 20.52685981 -89.02490234 17.72583008 C-88.12078613 17.54431396 -87.21666992 17.36279785 -86.28515625 17.17578125 C-85.07110107 16.95027588 -85.07110107 16.95027588 -83.83251953 16.72021484 C-81.22506925 15.65001655 -80.91899322 14.4282377 -79.83984375 11.90234375 C-77.26010539 10.61247457 -75.7047788 11.04131217 -72.83984375 11.27734375 C-66.93731494 11.32327783 -64.12286592 9.54739539 -59.57421875 5.9765625 C-56.44120193 3.59994546 -53.19506169 1.64828258 -49.77734375 -0.28515625 C-49.18187744 -0.62289062 -48.58641113 -0.960625 -47.97290039 -1.30859375 C-43.37063118 -3.87860144 -38.70738208 -6.08350246 -33.83984375 -8.09765625 C-34.33484375 -9.08765625 -34.33484375 -9.08765625 -34.83984375 -10.09765625 C-66.90579424 -20.00895004 -105.34076773 -8.85066801 -128.02734375 15.15234375 Z M-52.08984375 6.02734375 C-52.79189941 6.43452637 -53.49395508 6.84170898 -54.21728516 7.26123047 C-58.33735933 9.74046986 -61.58636397 12.35882508 -64.83984375 15.90234375 C-63.93105469 16.0003125 -63.02226562 16.09828125 -62.0859375 16.19921875 C-38.30218959 19.02887491 -18.38251127 26.43676133 -0.96875 43.1796875 C1.09241615 45.21686079 1.09241615 45.21686079 4.16015625 44.90234375 C8.30336096 35.71523765 9.68676337 25.71794648 6.140625 16.1015625 C1.20275024 5.0257717 -10.27665136 -0.89551803 -21.0703125 -5.5390625 C-30.00068644 -8.35814301 -44.57686675 1.63694266 -52.08984375 6.02734375 Z M-71.83984375 25.90234375 C-72.78859375 25.84046875 -73.73734375 25.77859375 -74.71484375 25.71484375 C-79.21076275 25.98459889 -80.77112243 28.24965496 -83.734375 31.4765625 C-84.42917969 32.27707031 -85.12398437 33.07757813 -85.83984375 33.90234375 C-86.60683594 34.75441406 -87.37382812 35.60648438 -88.1640625 36.484375 C-92.31732385 40.88561067 -92.31732385 40.88561067 -94.0390625 46.44140625 C-92.17633365 50.26394428 -88.77997516 51.37767024 -85.08984375 53.08984375 C-73.26109339 58.96453346 -63.75187764 66.67882949 -54.375 75.96875 C-51.40044997 78.2374746 -49.57060131 78.85219916 -45.83984375 78.90234375 C-43.8643561 77.80343528 -43.8643561 77.80343528 -42.27734375 75.96484375 C-31.83176959 65.95866277 -17.97887676 59.78003399 -4.4296875 55.2109375 C-1.7346679 54.16691955 -1.7346679 54.16691955 -0.83203125 51.94921875 C-0.84409077 48.78962437 -2.65823806 47.1101932 -4.73046875 44.890625 C-20.3699699 30.14894707 -41.78456411 21.73060826 -63.23828125 20.6171875 C-67.38823229 21.07206201 -68.9409931 23.0034931 -71.83984375 25.90234375 Z M-97.71484375 23.96484375 C-98.53839355 24.18527344 -99.36194336 24.40570313 -100.21044922 24.6328125 C-112.43096203 28.03818411 -127.78655289 32.63689112 -136.83984375 41.90234375 C-135.5353125 41.96292969 -134.23078125 42.02351563 -132.88671875 42.0859375 C-131.12108863 42.17046594 -129.35546399 42.25510904 -127.58984375 42.33984375 C-126.21844238 42.40316895 -126.21844238 42.40316895 -124.81933594 42.46777344 C-119.88014102 42.70713308 -115.00330237 43.07615208 -110.08984375 43.65234375 C-105.03252869 44.05721307 -101.05753277 43.93244332 -96.83984375 40.90234375 C-93.09837833 37.00361884 -89.56374996 33.07406237 -87.83984375 27.90234375 C-87.17984375 27.90234375 -86.51984375 27.90234375 -85.83984375 27.90234375 C-84.45046298 25.94086501 -83.11380265 23.94067799 -81.83984375 21.90234375 C-87.47977754 21.65550315 -92.27974013 22.49365416 -97.71484375 23.96484375 Z M-101.83984375 56.90234375 C-104.35995481 61.03103633 -106.09624091 65.40013009 -107.83984375 69.90234375 C-108.25621094 70.93359375 -108.67257813 71.96484375 -109.1015625 73.02734375 C-112.13340113 80.85296575 -112.13340113 80.85296575 -110.74609375 88.9453125 C-108.47775322 92.46402926 -105.88502899 94.18085389 -102.33984375 96.21484375 C-94.63335576 100.89467801 -87.47790177 106.1072862 -81.21484375 112.640625 C-79.02203563 115.16317579 -79.02203563 115.16317579 -75.90234375 115.33984375 C-71.73493512 113.38371317 -70.64580603 110.77937758 -68.48828125 106.8125 C-66.16791836 102.71612475 -63.37716725 99.02528916 -60.57421875 95.25 C-57.28616718 90.79928155 -56.01600984 88.16604181 -56.16015625 82.6484375 C-58.58451283 72.85347958 -72.55870743 65.06265514 -80.83984375 59.90234375 C-91.16657879 53.48996113 -91.16657879 53.48996113 -101.83984375 56.90234375 Z M-37.83984375 77.90234375 C-38.76667969 78.49660156 -39.69351563 79.09085938 -40.6484375 79.703125 C-43.14797435 81.78905707 -43.14797435 81.78905707 -43.40625 85.21484375 C-42.74856372 89.49660825 -41.1413423 92.37885343 -38.77734375 95.90234375 C-29.06935108 111.28368963 -23.77244554 127.48771209 -18.83984375 144.90234375 C-17.51984375 144.90234375 -16.19984375 144.90234375 -14.83984375 144.90234375 C-11.73781775 139.69537154 -9.6804917 135.07812293 -10.83984375 128.90234375 C-11.97943714 125.47373949 -13.33314514 122.18479429 -14.83984375 118.90234375 C-12.9159753 119.78260431 -11.00098417 120.68228066 -9.08984375 121.58984375 C-8.0225 122.08871094 -6.95515625 122.58757812 -5.85546875 123.1015625 C-0.80668537 126.1164448 1.41443356 129.60588368 2.91015625 135.21484375 C3.1525 136.09785156 3.39484375 136.98085937 3.64453125 137.890625 C3.8146875 138.55449219 3.98484375 139.21835938 4.16015625 139.90234375 C4.49015625 139.90234375 4.82015625 139.90234375 5.16015625 139.90234375 C6.43049092 129.86382626 6.43049092 129.86382626 3.68359375 120.53125 C1.28111033 118.6551534 -1.12758237 117.29935387 -3.83984375 115.90234375 C-5.76967224 114.79462324 -7.68305113 113.66227803 -9.59350586 112.52148438 C-10.89206835 111.75285989 -12.20121243 111.0017483 -13.52172852 110.27148438 C-19.09588873 107.10167786 -22.80745541 103.60621797 -25.15234375 97.46484375 C-26.52608987 90.34634111 -26.0433717 84.40455395 -22.83984375 77.90234375 C-20.37221739 74.38689304 -17.64313807 71.15222815 -14.83984375 67.90234375 C-13.50057464 66.24044309 -12.16556783 64.57506944 -10.83984375 62.90234375 C-19.7497867 62.90234375 -31.25583949 72.71008023 -37.83984375 77.90234375 Z M0.84765625 86.90234375 C-0.47685547 87.45921875 -0.47685547 87.45921875 -1.828125 88.02734375 C-2.82392578 88.46046875 -2.82392578 88.46046875 -3.83984375 88.90234375 C-0.84974165 92.23745763 2.05514199 94.11755494 6.16015625 95.90234375 C6.82015625 95.90234375 7.48015625 95.90234375 8.16015625 95.90234375 C8.20914063 95.19207031 8.258125 94.48179687 8.30859375 93.75 C8.38335937 92.83089844 8.458125 91.91179687 8.53515625 90.96484375 C8.60476563 90.04832031 8.674375 89.13179688 8.74609375 88.1875 C8.88273438 87.43339844 9.019375 86.67929688 9.16015625 85.90234375 C9.82015625 85.57234375 10.48015625 85.24234375 11.16015625 84.90234375 C7.20185937 84.67411762 4.48164084 85.35184366 0.84765625 86.90234375 Z M-47.83984375 91.90234375 C-55.0712562 93.79237201 -57.65747288 98.02710848 -61.83984375 103.90234375 C-62.44828125 104.69125 -63.05671875 105.48015625 -63.68359375 106.29296875 C-67.73892664 112.06990522 -68.9288382 117.22709123 -68.6171875 124.2734375 C-67.43671558 129.7842838 -64.58012733 133.69210618 -61.3515625 138.1640625 C-58.06078434 142.81245981 -55.90553506 147.96501105 -53.75585938 153.21801758 C-51.68481492 157.99348964 -49.71424794 160.55517842 -44.83984375 162.90234375 C-37.40853979 163.18189123 -30.2463747 159.22875513 -24.27734375 155.15234375 C-22.11769837 151.77202924 -23.13631094 148.66559175 -23.83984375 144.90234375 C-24.60634425 141.53572604 -25.51072987 138.22028088 -26.46484375 134.90234375 C-26.72845703 133.98533691 -26.99207031 133.06833008 -27.26367188 132.12353516 C-31.29306938 118.56088512 -36.83405411 101.28963492 -47.83984375 91.90234375 Z M-113.99853516 98.46508789 C-116.47269176 101.74001567 -116.32767561 103.82077743 -116.30078125 107.8984375 C-116.29986481 108.56899673 -116.29894836 109.23955597 -116.29800415 109.93043518 C-116.29197754 111.3450531 -116.27625934 112.75965881 -116.25146484 114.17407227 C-116.21501997 116.32942196 -116.21044529 118.48304651 -116.2109375 120.63867188 C-116.32039404 129.01274847 -116.32039404 129.01274847 -113.83984375 136.90234375 C-113.34484375 137.37671875 -112.84984375 137.85109375 -112.33984375 138.33984375 C-110.83984375 139.90234375 -110.83984375 139.90234375 -110.140625 142.734375 C-108.42810729 146.90510131 -106.39661115 147.92630996 -102.52734375 150.15234375 C-101.39683594 150.8175 -100.26632813 151.48265625 -99.1015625 152.16796875 C-94.6820175 154.51800226 -91.88667044 155.90234375 -86.83984375 155.90234375 C-86.59234375 154.72671875 -86.34484375 153.55109375 -86.08984375 152.33984375 C-84.84485706 146.6881416 -83.29059204 141.12503759 -81.7421875 135.55078125 C-79.66158181 127.25284902 -79.66158181 127.25284902 -81.46484375 119.0625 C-86.28894553 111.48372647 -94.50863835 106.23647954 -101.83984375 101.27734375 C-102.81002441 100.62016357 -102.81002441 100.62016357 -103.79980469 99.94970703 C-108.7735914 96.4836909 -108.7735914 96.4836909 -113.99853516 98.46508789 Z M25.16015625 122.90234375 C25.72755493 127.03208003 25.72755493 127.03208003 27.16015625 130.90234375 C31.19492967 130.32075479 34.01256826 129.03478316 37.47265625 126.90234375 C38.35566406 126.36609375 39.23867188 125.82984375 40.1484375 125.27734375 C40.81230469 124.82359375 41.47617187 124.36984375 42.16015625 123.90234375 C42.16015625 123.57234375 42.16015625 123.24234375 42.16015625 122.90234375 C38.88572462 122.62167818 37.46891972 122.70164749 34.66015625 124.52734375 C32.16015625 125.90234375 32.16015625 125.90234375 29.47265625 125.15234375 C28.70953125 124.73984375 27.94640625 124.32734375 27.16015625 123.90234375 C26.50015625 123.57234375 25.84015625 123.24234375 25.16015625 122.90234375 Z M-74.83984375 128.90234375 C-78.29258453 137.71856536 -81.9952841 147.27367414 -80.83984375 156.90234375 C-78.03932469 160.79521187 -75.14480656 161.6345882 -70.640625 162.46679688 C-69.88136719 162.58990234 -69.12210938 162.71300781 -68.33984375 162.83984375 C-67.58058594 162.99001953 -66.82132813 163.14019531 -66.0390625 163.29492188 C-62.54783556 163.89717381 -60.45195033 164.24901522 -57.30859375 162.46875 C-56.82390625 161.95183594 -56.33921875 161.43492187 -55.83984375 160.90234375 C-56.38026054 155.93203159 -58.0209263 152.04484676 -60.40234375 147.71484375 C-60.75441895 147.06572021 -61.10649414 146.41659668 -61.46923828 145.74780273 C-64.75260173 139.82537221 -68.33844211 133.98491227 -72.83984375 128.90234375 C-73.49984375 128.90234375 -74.15984375 128.90234375 -74.83984375 128.90234375 Z M5.16015625 141.90234375 C6.16015625 144.90234375 6.16015625 144.90234375 6.16015625 144.90234375 Z M22.97265625 144.40234375 C21.88597656 144.86640625 20.79929687 145.33046875 19.6796875 145.80859375 C18.84824219 146.16953125 18.01679688 146.53046875 17.16015625 146.90234375 C20.01425959 148.40794872 22.84140267 149.53451171 25.91015625 150.52734375 C26.709375 150.78773438 27.50859375 151.048125 28.33203125 151.31640625 C28.9353125 151.50976562 29.53859375 151.703125 30.16015625 151.90234375 C29.83015625 150.91234375 29.50015625 149.92234375 29.16015625 148.90234375 C28.50015625 148.90234375 27.84015625 148.90234375 27.16015625 148.90234375 C27.16015625 147.91234375 27.16015625 146.92234375 27.16015625 145.90234375 C28.81015625 145.24234375 30.46015625 144.58234375 32.16015625 143.90234375 C32.16015625 143.24234375 32.16015625 142.58234375 32.16015625 141.90234375 C28.53164999 141.90234375 26.29848347 142.97188043 22.97265625 144.40234375 Z M-108.83984375 151.90234375 C-107.50914212 157.516014 -105.38749045 161.81518974 -102.27734375 166.65234375 C-101.83769287 167.34465088 -101.39804199 168.03695801 -100.94506836 168.75024414 C-94.48224343 179.73847111 -94.48224343 179.73847111 -84.83984375 186.90234375 C-85.07315166 184.24660479 -85.31248874 181.59172913 -85.5625 178.9375 C-85.73487403 177.05109683 -85.89147017 175.16309735 -86.0234375 173.2734375 C-86.08660156 172.49097656 -86.14976562 171.70851562 -86.21484375 170.90234375 C-86.26382813 170.20109375 -86.3128125 169.49984375 -86.36328125 168.77734375 C-86.96419661 166.41308659 -88.08951155 165.55393926 -89.83984375 163.90234375 C-90.16984375 162.91234375 -90.49984375 161.92234375 -90.83984375 160.90234375 C-92.52332098 159.66138961 -92.52332098 159.66138961 -94.62109375 158.640625 C-95.38035156 158.24423828 -96.13960937 157.84785156 -96.921875 157.43945312 C-97.71980469 157.03533203 -98.51773438 156.63121094 -99.33984375 156.21484375 C-100.13777344 155.79912109 -100.93570313 155.38339844 -101.7578125 154.95507812 C-105.138542 152.88661653 -105.138542 152.88661653 -108.83984375 151.90234375 Z M-80.83984375 165.90234375 C-82.41520895 172.02115352 -81.45116883 177.86182073 -79.83984375 183.90234375 C-77.44438994 186.88481159 -77.44438994 186.88481159 -74.83984375 188.90234375 C-74.1875 191.52734375 -74.1875 191.52734375 -73.83984375 193.90234375 C-65.29467032 196.81984664 -56.89806981 198.49508654 -47.96484375 199.65234375 C-46.99087646 199.77971924 -46.01690918 199.90709473 -45.01342773 200.03833008 C-39.57867202 200.7019218 -34.31382704 201.03175234 -28.83984375 200.90234375 C-28.86304688 200.21269531 -28.88625 199.52304688 -28.91015625 198.8125 C-29.08192468 189.8682727 -28.10104793 182.84367882 -23.83984375 174.90234375 C-23.83984375 174.24234375 -23.83984375 173.58234375 -23.83984375 172.90234375 C-28.39275189 169.0759635 -33.03399454 166.34670702 -39.08984375 166.71484375 C-42.53177684 167.2893942 -44.49548601 168.14323368 -47.02734375 170.52734375 C-49.83984375 172.90234375 -49.83984375 172.90234375 -53.71484375 172.71484375 C-55.26171875 172.31265625 -55.26171875 172.31265625 -56.83984375 171.90234375 C-57.16984375 170.91234375 -57.49984375 169.92234375 -57.83984375 168.90234375 C-60.54710741 168.39586235 -63.25541499 167.89699275 -65.96484375 167.40234375 C-66.72539062 167.25925781 -67.4859375 167.11617187 -68.26953125 166.96875 C-72.52027289 166.19921919 -76.49843572 165.73589999 -80.83984375 165.90234375 Z " fill="#83359F" transform="translate(269.83984375,56.09765625)"/>
<path d="M0 0 C11.74654083 9.41638463 11.74654083 9.41638463 15.125 13.8671875 C15.125 14.8571875 15.125 15.8471875 15.125 16.8671875 C14.135 16.5371875 13.145 16.2071875 12.125 15.8671875 C11.465 18.5071875 10.805 21.1471875 10.125 23.8671875 C9.465 23.5371875 8.805 23.2071875 8.125 22.8671875 C7.75375 21.6296875 7.75375 21.6296875 7.375 20.3671875 C3.40138503 9.24106559 -4.01024313 4.44388564 -13.875 -1.1328125 C-14.7309375 -1.63554688 -15.586875 -2.13828125 -16.46875 -2.65625 C-20.96386964 -5.01460502 -24.27379877 -5.67309035 -29.17578125 -4.21875 C-41.48289987 0.73259439 -52.86275024 7.52568766 -63.875 14.8671875 C-62.67746094 15.02574219 -61.47992188 15.18429688 -60.24609375 15.34765625 C-38.63575592 18.37171984 -19.28318873 25.11384174 -2.875 39.8671875 C-1.65047914 40.893589 -0.42220894 41.91556461 0.8125 42.9296875 C1.575625 43.5690625 2.33875 44.2084375 3.125 44.8671875 C3.30675781 44.30128906 3.48851562 43.73539063 3.67578125 43.15234375 C3.92714844 42.41886719 4.17851562 41.68539062 4.4375 40.9296875 C4.68113281 40.19878906 4.92476562 39.46789062 5.17578125 38.71484375 C6.125 36.8671875 6.125 36.8671875 9.125 35.8671875 C9.03753716 37.30580044 8.92934652 38.74316258 8.8125 40.1796875 C8.75449219 40.98019531 8.69648438 41.78070313 8.63671875 42.60546875 C8.03395006 45.26961432 7.18609519 46.13586754 5.125 47.8671875 C4.568125 48.4240625 4.01125 48.9809375 3.4375 49.5546875 C3.004375 49.9878125 2.57125 50.4209375 2.125 50.8671875 C2.455 51.8571875 2.785 52.8471875 3.125 53.8671875 C1.805 53.8671875 0.485 53.8671875 -0.875 53.8671875 C-1.26300781 52.81402344 -1.65101563 51.76085937 -2.05078125 50.67578125 C-7.10750839 38.96314069 -22.70416954 32.532362 -33.86035156 28.07373047 C-41.54827796 25.164423 -49.36395131 23.370763 -57.5 22.2421875 C-58.61930908 22.06453857 -58.61930908 22.06453857 -59.76123047 21.88330078 C-62.68649093 21.5535538 -65.07145955 21.36286029 -67.6262207 22.96630859 C-69.07532029 24.22990027 -70.47806734 25.5461528 -71.875 26.8671875 C-72.844375 26.8259375 -73.81375 26.7846875 -74.8125 26.7421875 C-78.36802839 26.88731111 -78.79825361 27.34047675 -81.25 29.7421875 C-82.48228117 31.09576704 -83.68841212 32.47337845 -84.875 33.8671875 C-85.97521484 35.12982422 -85.97521484 35.12982422 -87.09765625 36.41796875 C-91.69611128 41.44176897 -91.69611128 41.44176897 -92.875 47.8671875 C-91.79863281 48.40085937 -90.72226563 48.93453125 -89.61328125 49.484375 C-78.45948417 55.131137 -67.27982652 61.37536263 -58.875 70.8671875 C-58.125 74.1171875 -58.125 74.1171875 -57.875 76.8671875 C-62.11127547 74.91529895 -65.38544368 72.76031144 -68.875 69.6796875 C-76.2905584 63.47131302 -85.35212664 57.11023383 -94.875 54.8671875 C-95.865 55.5271875 -96.855 56.1871875 -97.875 56.8671875 C-99.195 56.8671875 -100.515 56.8671875 -101.875 56.8671875 C-102.25785156 58.07181641 -102.25785156 58.07181641 -102.6484375 59.30078125 C-103.57038232 61.98146794 -104.54291504 64.58878137 -105.6015625 67.21484375 C-105.9109375 67.98505859 -106.2203125 68.75527344 -106.5390625 69.54882812 C-107.18214127 71.14214728 -107.83062683 72.73329439 -108.484375 74.32226562 C-110.75548801 79.90311381 -110.75548801 79.90311381 -110.875 85.8671875 C-110.545 86.1971875 -110.215 86.5271875 -109.875 86.8671875 C-109.51409774 94.32583412 -109.51409774 94.32583412 -111.875 97.8671875 C-115.20210898 98.17525315 -117.99759723 98.07499342 -121.25 97.3046875 C-122.875 95.8671875 -122.875 95.8671875 -123.8125 92.4921875 C-123.875 88.8671875 -123.875 88.8671875 -122.625 86.4296875 C-120.875 84.8671875 -120.875 84.8671875 -117.875 84.8671875 C-117.73964844 84.1865625 -117.60429687 83.5059375 -117.46484375 82.8046875 C-115.85669224 75.56319087 -113.44335632 69.16763374 -110.12475586 62.56445312 C-107.90830372 57.90961007 -107.71072307 54.86711009 -108.875 49.8671875 C-123.41178738 47.48528521 -123.41178738 47.48528521 -137.875 48.8671875 C-140.10477996 50.84620324 -140.10477996 50.84620324 -141.875 52.8671875 C-146.28268137 53.58844445 -148.13437488 53.38720088 -151.8125 50.8046875 C-153.875 47.8671875 -153.875 47.8671875 -154.5625 44.3671875 C-153.85408068 40.76068914 -153.60664118 40.19048439 -151 37.9296875 C-147.875 35.8671875 -147.875 35.8671875 -145.875 35.8671875 C-145.565625 34.6503125 -145.25625 33.4334375 -144.9375 32.1796875 C-138.64760227 13.65782274 -121.37191004 -0.38680618 -104.57568359 -8.8984375 C-72.30398346 -24.65457142 -29.06844826 -21.56436515 0 0 Z M-128.0625 15.1171875 C-133.10518741 21.02463329 -139.53117237 29.05027469 -140.875 36.8671875 C-137.30268727 35.52842403 -133.94528458 33.91065061 -130.56201172 32.15161133 C-117.10054864 25.18748202 -103.99144415 20.49170356 -89.06005859 17.69067383 C-88.15594238 17.50915771 -87.25182617 17.3276416 -86.3203125 17.140625 C-85.10625732 16.91511963 -85.10625732 16.91511963 -83.86767578 16.68505859 C-81.2602255 15.6148603 -80.95414947 14.39308145 -79.875 11.8671875 C-77.29526164 10.57731832 -75.73993505 11.00615592 -72.875 11.2421875 C-66.97247119 11.28812158 -64.15802217 9.51223914 -59.609375 5.94140625 C-56.47635818 3.56478921 -53.23021794 1.61312633 -49.8125 -0.3203125 C-49.21703369 -0.65804687 -48.62156738 -0.99578125 -48.00805664 -1.34375 C-43.40578743 -3.91375769 -38.74253833 -6.11865871 -33.875 -8.1328125 C-34.37 -9.1228125 -34.37 -9.1228125 -34.875 -10.1328125 C-66.94095049 -20.04410629 -105.37592398 -8.88582426 -128.0625 15.1171875 Z M-97.75 23.9296875 C-98.5735498 24.15011719 -99.39709961 24.37054688 -100.24560547 24.59765625 C-112.46611828 28.00302786 -127.82170914 32.60173487 -136.875 41.8671875 C-135.57046875 41.92777344 -134.2659375 41.98835938 -132.921875 42.05078125 C-131.15624488 42.13530969 -129.39062024 42.21995279 -127.625 42.3046875 C-126.25359863 42.3680127 -126.25359863 42.3680127 -124.85449219 42.43261719 C-119.91529727 42.67197683 -115.03845862 43.04099583 -110.125 43.6171875 C-105.06768494 44.02205682 -101.09268902 43.89728707 -96.875 40.8671875 C-93.13353458 36.96846259 -89.59890621 33.03890612 -87.875 27.8671875 C-87.215 27.8671875 -86.555 27.8671875 -85.875 27.8671875 C-84.48561923 25.90570876 -83.1489589 23.90552174 -81.875 21.8671875 C-87.51493379 21.6203469 -92.31489638 22.45849791 -97.75 23.9296875 Z " fill="#AF4698" transform="translate(269.875,56.1328125)"/>
<path d="M0 0 C2.31 0.33 4.62 0.66 7 1 C6.67 1.99 6.34 2.98 6 4 C5.90429918 6.30964003 5.86926084 8.6219728 5.8671875 10.93359375 C5.86575241 11.94511253 5.86575241 11.94511253 5.86428833 12.97706604 C5.86360859 14.40178521 5.8654485 15.8265075 5.86962891 17.2512207 C5.87497179 19.42601527 5.86968131 21.60060254 5.86328125 23.77539062 C5.86394223 25.16145879 5.86522381 26.54752682 5.8671875 27.93359375 C5.86831543 29.19228271 5.86944336 30.45097168 5.87060547 31.74780273 C6.02843846 36.94930018 6.02843846 36.94930018 9 40.9375 C11 43 11 43 11.25 45.37109375 C12.3599066 49.2615476 14.57671187 50.10430909 18 52.125 C18.58289795 52.47046875 19.1657959 52.8159375 19.76635742 53.171875 C24.38495934 55.83247404 28.87337974 57.6097301 34 59 C34.09796875 58.14019531 34.1959375 57.28039062 34.296875 56.39453125 C35.10459619 50.00935596 36.10415077 44.28616244 38.1875 38.1875 C40.04849459 32.58391483 40.17198379 28.76225361 39 23 C39.66 23 40.32 23 41 23 C41 24.32 41 25.64 41 27 C42.65 27.33 44.3 27.66 46 28 C46 28.66 46 29.32 46 30 C47.32 30 48.64 30 50 30 C50.495 31.485 50.495 31.485 51 33 C52.98 32.505 52.98 32.505 55 32 C70 56.1 70 56.1 70 62 C72.97859946 63.24108311 75.85301239 64.28938989 79 65 C80.33333333 65.33333333 81.66666667 65.66666667 83 66 C82.67 66.66 82.34 67.32 82 68 C83.98 68 85.96 68 88 68 C88.33 68.99 88.66 69.98 89 71 C87.783125 70.95875 86.56625 70.9175 85.3125 70.875 C80.32097217 70.8925758 77.31293749 71.8511797 73.5 75.1875 C71 77 71 77 68.375 76.9375 C66 76 66 76 64.87109375 74.546875 C61.90971324 72.09863558 58.38056934 71.88669855 54.6875 71.3125 C53.56698242 71.11817383 53.56698242 71.11817383 52.42382812 70.91992188 C48.23862705 70.22545041 44.25737527 69.85786187 40 70 C40.20193573 72.73366731 40.4353418 75.45838959 40.6875 78.1875 C40.74099609 78.95642578 40.79449219 79.72535156 40.84960938 80.51757812 C41.40082159 86.1015975 42.82096259 88.09101347 47 92 C47.3125 94.8125 47.3125 94.8125 47 97 C61.93995821 100.12013869 76.81568776 102.49044849 92 104 C91.74669922 103.20142578 91.74669922 103.20142578 91.48828125 102.38671875 C89.75565454 93.91763939 91.92418381 85.42138197 96 78 C96.33 77.34 96.66 76.68 97 76 C96.34 75.67 95.68 75.34 95 75 C98.73487777 75.4979837 100.81237635 75.87491756 104 78 C103.38125 78.70125 102.7625 79.4025 102.125 80.125 C97.51848731 86.3573407 97.74390028 92.43256997 97.875 99.875 C97.88402344 100.84953125 97.89304687 101.8240625 97.90234375 102.828125 C97.92578377 105.21900728 97.95859558 107.60937261 98 110 C87.36723664 109.74922728 76.9976174 108.87789163 66.5 107.125 C65.03433594 106.88281738 65.03433594 106.88281738 63.5390625 106.63574219 C57.67805865 105.61324321 52.0268472 104.25067158 46.33154297 102.52661133 C43.83671157 101.80887075 43.83671157 101.80887075 40.625 102.5625 C38 103 38 103 35.3125 101.4375 C33 99 33 99 31.61328125 96.12890625 C29.99425508 92.98885792 28.33682911 91.00594791 25.875 88.5 C18.40572653 80.388078 5 63.75293901 5 52 C4.1028125 51.9071875 4.1028125 51.9071875 3.1875 51.8125 C1 51 1 51 -0.875 48.75 C-2 46 -2 46 -1.046875 43.6796875 C0.18201565 40.53409426 0.02097182 38.7099627 -0.375 35.375 C-0.92300285 29.64706546 -1.12161915 23.99857019 -1.125 18.25 C-1.12935059 17.47060059 -1.13370117 16.69120117 -1.13818359 15.88818359 C-1.12571121 10.52392576 -0.66799268 5.32273536 0 0 Z M46 32 C42.54725922 40.81622161 38.84455965 50.37133039 40 60 C42.80051906 63.89286812 45.69503719 64.73224445 50.19921875 65.56445312 C50.95847656 65.68755859 51.71773437 65.81066406 52.5 65.9375 C53.25925781 66.08767578 54.01851562 66.23785156 54.80078125 66.39257812 C58.29200819 66.99483006 60.38789342 67.34667147 63.53125 65.56640625 C64.0159375 65.04949219 64.500625 64.53257812 65 64 C64.45958321 59.02968784 62.81891745 55.14250301 60.4375 50.8125 C60.0854248 50.16337646 59.73334961 49.51425293 59.37060547 48.84545898 C56.08724202 42.92302846 52.50140164 37.08256852 48 32 C47.34 32 46.68 32 46 32 Z M12 55 C13.33070163 60.61367025 15.4523533 64.91284599 18.5625 69.75 C19.00215088 70.44230713 19.44180176 71.13461426 19.89477539 71.84790039 C26.35760032 82.83612736 26.35760032 82.83612736 36 90 C35.76669209 87.34426104 35.52735501 84.68938538 35.27734375 82.03515625 C35.10496972 80.14875308 34.94837358 78.2607536 34.81640625 76.37109375 C34.75324219 75.58863281 34.69007813 74.80617188 34.625 74 C34.57601562 73.29875 34.52703125 72.5975 34.4765625 71.875 C33.87564714 69.51074284 32.7503322 68.65159551 31 67 C30.67 66.01 30.34 65.02 30 64 C28.31652277 62.75904586 28.31652277 62.75904586 26.21875 61.73828125 C25.45949219 61.34189453 24.70023438 60.94550781 23.91796875 60.53710938 C23.12003906 60.13298828 22.32210937 59.72886719 21.5 59.3125 C20.70207031 58.89677734 19.90414062 58.48105469 19.08203125 58.05273438 C15.70130175 55.98427278 15.70130175 55.98427278 12 55 Z " fill="#662F91" transform="translate(149,153)"/>
<path d="M0 0 C1.3609623 2.7219246 0.70366248 4.1831957 0.0625 7.125 C-0.13214844 8.03507812 -0.32679688 8.94515625 -0.52734375 9.8828125 C-0.76130859 10.93082031 -0.76130859 10.93082031 -1 12 C-2.32 12.33 -3.64 12.66 -5 13 C-4.67 11.35 -4.34 9.7 -4 8 C-13.68222296 12.56777394 -22.58327925 17.28918078 -31 24 C-31.886875 24.6496875 -32.77375 25.299375 -33.6875 25.96875 C-36.07039189 28.06183071 -36.87116172 29.2773528 -37.8125 32.25 C-38.4003125 34.10625 -38.4003125 34.10625 -39 36 C-39.66 36 -40.32 36 -41 36 C-41 36.66 -41 37.32 -41 38 C-41.89460938 38.21269531 -42.78921875 38.42539063 -43.7109375 38.64453125 C-47.75520104 40.31122893 -49.10943233 42.14526073 -51.625 45.6875 C-52.35976562 46.70199219 -53.09453125 47.71648437 -53.8515625 48.76171875 C-54.91503906 50.36466797 -54.91503906 50.36466797 -56 52 C-56.38091797 52.54164795 -56.76183594 53.0832959 -57.15429688 53.64135742 C-60.25755331 58.40677842 -60.49926661 62.34338206 -60.25 67.9375 C-60.23195312 68.71673828 -60.21390625 69.49597656 -60.1953125 70.29882812 C-60.14866383 72.19976131 -60.07693829 74.10005169 -60 76 C-61.32 76 -62.64 76 -64 76 C-64 74.68 -64 73.36 -64 72 C-65.32 72 -66.64 72 -68 72 C-68 71.34 -68 70.68 -68 70 C-68.99 70.33 -69.98 70.66 -71 71 C-71 70.34 -71 69.68 -71 69 C-71.66 69 -72.32 69 -73 69 C-73 67.68 -73 66.36 -73 65 C-73.66 65 -74.32 65 -75 65 C-75.93911709 63.93240435 -76.82462854 62.81761249 -77.6875 61.6875 C-81.18664459 57.56350816 -85.1002088 54.43046578 -89.4375 51.25 C-90.05778076 50.79069092 -90.67806152 50.33138184 -91.31713867 49.8581543 C-95.67909677 46.72062551 -100.14500297 44.30115031 -105 42 C-104.34 39.36 -103.68 36.72 -103 34 C-102.67 34.99 -102.34 35.98 -102 37 C-100.3552524 37.71904628 -98.68400695 38.3784352 -97 39 C-88.98227281 43.98581355 -80.52493343 49.90311043 -74.25 57 C-72.08505083 59.3212887 -72.08505083 59.3212887 -68.6875 59.3125 C-67.800625 59.209375 -66.91375 59.10625 -66 59 C-65.73703125 58.28457031 -65.4740625 57.56914062 -65.203125 56.83203125 C-63.95472593 53.89342954 -62.47500482 51.37213588 -60.75 48.6875 C-60.13511719 47.72328125 -59.52023438 46.7590625 -58.88671875 45.765625 C-57.22973679 43.33675704 -55.47046246 41.16723285 -53.5625 38.9375 C-50.65350374 35.14722605 -50.24724748 31.99437865 -50.5234375 27.27734375 C-51.1925551 24.07983913 -52.64426389 22.2085026 -55 20 C-54.01 20 -53.02 20 -52 20 C-51.67 18.68 -51.34 17.36 -51 16 C-50.13375 16.969375 -49.2675 17.93875 -48.375 18.9375 C-46.26629634 20.99693488 -44.85361919 22.06682602 -42.125 23.3125 C-37.88901058 22.88890106 -36.40206062 20.98648637 -33.39453125 18.10546875 C-24.0074946 9.85161434 -11.7290867 4.12690088 0 0 Z " fill="#8C399A" transform="translate(263,111)"/>
<path d="M0 0 C2.27515324 2.88409131 4.04557128 5.81163736 5.75 9.0625 C13.15436277 23.99113873 13.15436277 23.99113873 25 35 C24.855625 34.27554688 24.71125 33.55109375 24.5625 32.8046875 C23.60449608 27.81508377 22.72392851 23.10732262 23 18 C23.33 18 23.66 18 24 18 C24.66 20.64 25.32 23.28 26 26 C26.66 26 27.32 26 28 26 C28 23.69 28 21.38 28 19 C28.33 19 28.66 19 29 19 C29.08636719 19.88042969 29.17273438 20.76085937 29.26171875 21.66796875 C30.30728826 30.45877171 30.30728826 30.45877171 36 37 C36.1484375 39.625 36.1484375 39.625 36 42 C50.93995821 45.12013869 65.81568776 47.49044849 81 49 C80.83113281 48.46761719 80.66226563 47.93523437 80.48828125 47.38671875 C78.75565454 38.91763939 80.92418381 30.42138197 85 23 C85.33 22.34 85.66 21.68 86 21 C85.34 20.67 84.68 20.34 84 20 C87.73487777 20.4979837 89.81237635 20.87491756 93 23 C92.38125 23.70125 91.7625 24.4025 91.125 25.125 C86.51848731 31.3573407 86.74390028 37.43256997 86.875 44.875 C86.88402344 45.84953125 86.89304687 46.8240625 86.90234375 47.828125 C86.92578377 50.21900728 86.95859558 52.60937261 87 55 C76.36723664 54.74922728 65.9976174 53.87789163 55.5 52.125 C54.52289063 51.96354492 53.54578125 51.80208984 52.5390625 51.63574219 C46.67805865 50.61324321 41.0268472 49.25067158 35.33154297 47.52661133 C32.83671157 46.80887075 32.83671157 46.80887075 29.625 47.5625 C27 48 27 48 24.3125 46.4375 C22 44 22 44 20.61328125 41.12890625 C18.99425508 37.98885792 17.33682911 36.00594791 14.875 33.5 C11.15179597 29.47820841 8.02292172 25.34187283 5.0625 20.75 C4.68528809 20.17185547 4.30807617 19.59371094 3.91943359 18.99804688 C1.6840748 15.44998763 0.16455619 12.02412086 -1 8 C-0.34 8 0.32 8 1 8 C0.67 5.36 0.34 2.72 0 0 Z " fill="#592B86" transform="translate(160,208)"/>
<path d="M0 0 C1.3609623 2.7219246 0.70366248 4.1831957 0.0625 7.125 C-0.13214844 8.03507812 -0.32679688 8.94515625 -0.52734375 9.8828125 C-0.76130859 10.93082031 -0.76130859 10.93082031 -1 12 C-2.32 12.33 -3.64 12.66 -5 13 C-4.67 11.35 -4.34 9.7 -4 8 C-13.68222296 12.56777394 -22.58327925 17.28918078 -31 24 C-31.886875 24.6496875 -32.77375 25.299375 -33.6875 25.96875 C-36.07039189 28.06183071 -36.87116172 29.2773528 -37.8125 32.25 C-38.204375 33.4875 -38.59625 34.725 -39 36 C-41.64 36 -44.28 36 -47 36 C-47.33 35.34 -47.66 34.68 -48 34 C-48.66 33.01 -49.32 32.02 -50 31 C-50.309375 29.865625 -50.61875 28.73125 -50.9375 27.5625 C-51.90789082 24.30883667 -52.79368834 22.50717234 -55 20 C-54.01 20 -53.02 20 -52 20 C-51.67 18.68 -51.34 17.36 -51 16 C-50.13375 16.969375 -49.2675 17.93875 -48.375 18.9375 C-46.26629634 20.99693488 -44.85361919 22.06682602 -42.125 23.3125 C-37.88901058 22.88890106 -36.40206062 20.98648637 -33.39453125 18.10546875 C-24.0074946 9.85161434 -11.7290867 4.12690088 0 0 Z " fill="#A441A1" transform="translate(263,111)"/>
<path d="M0 0 C2.31 0.33 4.62 0.66 7 1 C6.67 1.99 6.34 2.98 6 4 C5.90429918 6.30964003 5.86926084 8.6219728 5.8671875 10.93359375 C5.86575241 11.94511253 5.86575241 11.94511253 5.86428833 12.97706604 C5.86360859 14.40178521 5.8654485 15.8265075 5.86962891 17.2512207 C5.87497179 19.42601527 5.86968131 21.60060254 5.86328125 23.77539062 C5.86394223 25.16145879 5.86522381 26.54752682 5.8671875 27.93359375 C5.86831543 29.19228271 5.86944336 30.45097168 5.87060547 31.74780273 C6.01948359 36.9074612 6.01948359 36.9074612 8.9375 40.875 C12.22531452 44.26244526 12.96127416 48.4988547 14 53 C14.66 53 15.32 53 16 53 C16 53.66 16 54.32 16 55 C14.35 54.67 12.7 54.34 11 54 C11.33 56.97 11.66 59.94 12 63 C11.01 63 10.02 63 9 63 C8.32880451 61.5437455 7.66318193 60.08492133 7 58.625 C6.62875 57.81289062 6.2575 57.00078125 5.875 56.1640625 C5 54 5 54 5 52 C4.1028125 51.9071875 4.1028125 51.9071875 3.1875 51.8125 C1 51 1 51 -0.875 48.75 C-2 46 -2 46 -1.046875 43.6796875 C0.18201565 40.53409426 0.02097182 38.7099627 -0.375 35.375 C-0.92300285 29.64706546 -1.12161915 23.99857019 -1.125 18.25 C-1.12935059 17.47060059 -1.13370117 16.69120117 -1.13818359 15.88818359 C-1.12571121 10.52392576 -0.66799268 5.32273536 0 0 Z " fill="#7D3493" transform="translate(149,153)"/>
<path d="M0 0 C0.33 0 0.66 0 1 0 C1.165 1.051875 1.33 2.10375 1.5 3.1875 C2.67954358 7.95586768 5.13654464 11.63431864 7.75927734 15.74047852 C15.82053129 28.5122678 20.699237 42.50063372 24.54052734 57.046875 C25.55266761 60.90334887 25.55266761 60.90334887 28 64 C26.68 64 25.36 64 24 64 C23.9071875 65.8253125 23.9071875 65.8253125 23.8125 67.6875 C23.38241131 70.97128527 22.95337446 72.06499318 20.9375 74.875 C17.17078617 77.59985681 14.59188941 78.27112867 10 79 C7.75390625 78.5390625 7.75390625 78.5390625 6 78 C15.41002278 73.77676538 15.41002278 73.77676538 20 72 C19.51846438 65.02609994 18.34043303 58.57844027 16.375 51.875 C16.11138672 50.9670166 15.84777344 50.0590332 15.57617188 49.12353516 C11.20464953 34.55264716 4.76393566 20.4717546 -4 8 C-3.34 8 -2.68 8 -2 8 C-1.34 5.36 -0.68 2.72 0 0 Z " fill="#723483" transform="translate(226,139)"/>
<path d="M0 0 C18.8109759 0.99005136 37.22507725 10.61434296 51 23 C52.22452086 24.0264015 53.45279106 25.04837711 54.6875 26.0625 C55.450625 26.701875 56.21375 27.34125 57 28 C57.18175781 27.43410156 57.36351562 26.86820313 57.55078125 26.28515625 C57.80214844 25.55167969 58.05351562 24.81820312 58.3125 24.0625 C58.55613281 23.33160156 58.79976563 22.60070312 59.05078125 21.84765625 C60 20 60 20 63 19 C62.91253716 20.43861294 62.80434652 21.87597508 62.6875 23.3125 C62.62949219 24.11300781 62.57148438 24.91351563 62.51171875 25.73828125 C61.90895006 28.40242682 61.06109519 29.26868004 59 31 C58.443125 31.556875 57.88625 32.11375 57.3125 32.6875 C56.879375 33.120625 56.44625 33.55375 56 34 C56.33 34.99 56.66 35.98 57 37 C55.68 37 54.36 37 53 37 C52.61199219 35.94683594 52.22398437 34.89367187 51.82421875 33.80859375 C47.04235584 22.73260727 32.57863845 16.33836054 22 12 C12.57652752 8.3807273 3.04134628 6.15200377 -7 5 C-7 4.67 -7 4.34 -7 4 C-4.69 4 -2.38 4 0 4 C0 2.68 0 1.36 0 0 Z " fill="#AB4397" transform="translate(216,73)"/>
<path d="M0 0 C0.66 0 1.32 0 2 0 C2.33 0.99 2.66 1.98 3 3 C3.33 3.33 3.66 3.66 4 4 C3.46282052 10.24104883 0.82336589 15.74021876 -1.56054688 21.45507812 C-3.87371102 27.02936455 -3.87371102 27.02936455 -4 33 C-3.67 33.33 -3.34 33.66 -3 34 C-2.63909774 41.45864662 -2.63909774 41.45864662 -5 45 C-8.32710898 45.30806565 -11.12259723 45.20780592 -14.375 44.4375 C-16 43 -16 43 -16.9375 39.625 C-17 36 -17 36 -15.75 33.5625 C-14 32 -14 32 -11 32 C-10.86464844 31.319375 -10.72929687 30.63875 -10.58984375 29.9375 C-8.97640263 22.67218431 -6.51927566 16.16679074 -3.42553711 9.43359375 C-1.31791006 4.85024731 -1.31791006 4.85024731 0 0 Z " fill="#AB41A0" transform="translate(163,109)"/>
<path d="M0 0 C0.33 1.32 0.66 2.64 1 4 C1.99 4 2.98 4 4 4 C4.33 5.65 4.66 7.3 5 9 C5.64026123 8.91322998 6.28052246 8.82645996 6.94018555 8.73706055 C9.8530619 8.35861079 12.76934737 8.02273034 15.6875 7.6875 C16.69490234 7.55021484 17.70230469 7.41292969 18.74023438 7.27148438 C26.09943646 6.46998712 26.09943646 6.46998712 28.82275391 8.07275391 C30.20703125 9.45703125 30.20703125 9.45703125 32 12 C31.23333008 12.03963867 30.46666016 12.07927734 29.67675781 12.12011719 C26.19979974 12.3107653 22.72522225 12.53004922 19.25 12.75 C17.44015625 12.8428125 17.44015625 12.8428125 15.59375 12.9375 C14.43359375 13.01484375 13.2734375 13.0921875 12.078125 13.171875 C11.00981445 13.2347168 9.94150391 13.29755859 8.84082031 13.36230469 C5.41619521 14.13105003 4.33982041 15.47090194 2 18 C-2.40768137 18.72125695 -4.25937488 18.52001338 -7.9375 15.9375 C-10 13 -10 13 -10.6875 9.5 C-10 6 -10 6 -7.25 3.125 C-3 0.34615385 -3 0.34615385 0 0 Z " fill="#BC47A2" transform="translate(126,91)"/>
<path d="M0 0 C0.33 0.99 0.66 1.98 1 3 C1.99 3 2.98 3 4 3 C4 4.32 4 5.64 4 7 C8.29 7 12.58 7 17 7 C17.495 7.99 17.495 7.99 18 9 C17.67 9.66 17.34 10.32 17 11 C15.10979388 11.17931971 13.21067461 11.26813922 11.3125 11.3125 C5.93025773 11.62728 5.93025773 11.62728 1.625 14.5625 C-1 17 -1 17 -4.1875 17.25 C-5.115625 17.1675 -6.04375 17.085 -7 17 C-7.99 17.33 -8.98 17.66 -10 18 C-10.66 17.67 -11.32 17.34 -12 17 C-12.33 17.66 -12.66 18.32 -13 19 C-13 17.35 -13 15.7 -13 14 C-12.01 14 -11.02 14 -10 14 C-10 13.01 -10 12.02 -10 11 C-12.31 11 -14.62 11 -17 11 C-16.67 9.68 -16.34 8.36 -16 7 C-15.21625 6.938125 -14.4325 6.87625 -13.625 6.8125 C-12.75875 6.544375 -11.8925 6.27625 -11 6 C-9.76709799 3.54295238 -9.76709799 3.54295238 -9 1 C-6.04335481 -0.4783226 -3.25770263 -0.06032783 0 0 Z " fill="#BF48A6" transform="translate(199,66)"/>
<path d="M0 0 C3.57988134 3.38099904 6.75000559 6.59001095 9 11 C8.875 14 8.875 14 7 17 C5.32635845 18.05703677 3.61279041 19.05211432 1.875 20 C-0.79887888 21.41712361 -0.79887888 21.41712361 -3 23 C-3.91666667 26 -3.91666667 26 -3 29 C-2.3125 32.1875 -2.3125 32.1875 -2 35 C-3.4375 36.875 -3.4375 36.875 -5 38 C-4.484375 38.391875 -3.96875 38.78375 -3.4375 39.1875 C-2.963125 39.785625 -2.48875 40.38375 -2 41 C-2.3125 43.6875 -2.3125 43.6875 -3 46 C-5 43 -5 43 -6 40 C-6.66 41.32 -7.32 42.64 -8 44 C-9.98 43.67 -11.96 43.34 -14 43 C-14.495 41.515 -14.495 41.515 -15 40 C-13.35 40.33 -11.7 40.66 -10 41 C-10.66 40.34 -11.32 39.68 -12 39 C-12 38.01 -12 37.02 -12 36 C-11.360625 35.71125 -10.72125 35.4225 -10.0625 35.125 C-7.84793921 34.17176549 -7.84793921 34.17176549 -7 32 C-7.54269531 32.2165625 -8.08539063 32.433125 -8.64453125 32.65625 C-9.35996094 32.9346875 -10.07539063 33.213125 -10.8125 33.5 C-11.52019531 33.7784375 -12.22789062 34.056875 -12.95703125 34.34375 C-15 35 -15 35 -18 35 C-18 34.34 -18 33.68 -18 33 C-17.01 32.505 -17.01 32.505 -16 32 C-16 31.01 -16 30.02 -16 29 C-15.34 29 -14.68 29 -14 29 C-14 29.66 -14 30.32 -14 31 C-12.35 30.67 -10.7 30.34 -9 30 C-8.7834375 28.8553125 -8.7834375 28.8553125 -8.5625 27.6875 C-8 25 -8 25 -7 22 C-6.01 22 -5.02 22 -4 22 C-4 20.68 -4 19.36 -4 18 C-2.09232751 16.28309476 -0.28980473 15.14490236 2 14 C0.68 13.67 -0.64 13.34 -2 13 C-2 12.34 -2 11.68 -2 11 C-0.35 10.67 1.3 10.34 3 10 C1.68 9.34 0.36 8.68 -1 8 C-1 7.34 -1 6.68 -1 6 C-0.01 6 0.98 6 2 6 C1.34 4.02 0.68 2.04 0 0 Z " fill="#683090" transform="translate(309,166)"/>
<path d="M0 0 C2.8125 1.5625 2.8125 1.5625 5 4 C5.93605213 7.49459462 6.3742539 9.84605048 5.25 13.3125 C4 15 4 15 1 17 C-6.06306306 17.67267267 -6.06306306 17.67267267 -9.4375 15.25 C-11.92371871 11.66984505 -11.92371871 11.66984505 -12 9 C-9.66462182 2.22740328 -7.49236583 -0.8990839 0 0 Z " fill="#BE46A3" transform="translate(95,100)"/>
<path d="M0 0 C2.31 0.33 4.62 0.66 7 1 C6.67 1.99 6.34 2.98 6 4 C5.84629652 6.72883073 5.74271735 9.43697142 5.68359375 12.16796875 C5.66281265 12.96278152 5.64203156 13.7575943 5.62062073 14.57649231 C5.55527913 17.11340763 5.49631192 19.65042573 5.4375 22.1875 C5.39430014 23.90821372 5.35068537 25.62891708 5.30664062 27.34960938 C5.19961352 31.56630113 5.09830276 35.7830962 5 40 C2 39 2 39 1.05078125 37.1640625 C-2.45341254 25.11260237 -1.52506138 12.32347988 0 0 Z " fill="#86378A" transform="translate(149,153)"/>
<path d="M0 0 C2.375 1.625 2.375 1.625 4 4 C4.5625 7.5 4.5625 7.5 4 11 C1.41830549 13.96135546 -0.18881135 14.86756104 -4.0625 15.5 C-7.71305549 14.87862885 -8.83229623 13.97055702 -11 11 C-12 8.625 -12 8.625 -12 6 C-8.60349569 -0.09028359 -6.86464016 -1.78480644 0 0 Z " fill="#AB4796" transform="translate(95,143)"/>
<path d="M0 0 C3.73487777 0.4979837 5.81237635 0.87491756 9 3 C8.401875 3.639375 7.80375 4.27875 7.1875 4.9375 C0.92369846 13.70682216 1.73855245 22.62924704 2 33 C-2.95 33 -7.9 33 -13 33 C-13 32.67 -13 32.34 -13 32 C-11.02 31.67 -9.04 31.34 -7 31 C-7 30.67 -7 30.34 -7 30 C-5.35 30 -3.7 30 -2 30 C-2.49886719 28.95585937 -2.49886719 28.95585937 -3.0078125 27.890625 C-5.31879679 21.15783612 -3.8397393 13.20709543 -1 6.8125 C-0.35346204 5.53130896 0.30918043 4.25786729 1 3 C1.33 2.34 1.66 1.68 2 1 C1.34 0.67 0.68 0.34 0 0 Z " fill="#642F97" transform="translate(244,228)"/>
<path d="M0 0 C3.1096837 3.69274939 5.63929221 7.55274061 8 11.75 C8.52219116 12.67317017 8.52219116 12.67317017 9.05493164 13.61499023 C16.13253103 26.27711548 16.13253103 26.27711548 17 33 C16.34 33 15.68 33 15 33 C15 33.66 15 34.32 15 35 C14.34 35 13.68 35 13 35 C12.76925781 34.36835938 12.53851563 33.73671875 12.30078125 33.0859375 C10.49672263 28.80603868 8.34722512 24.73452114 6.1875 20.625 C5.76146484 19.8 5.33542969 18.975 4.89648438 18.125 C2.85216593 14.22811462 0.77913674 10.5931086 -1.88671875 7.0859375 C-2.58410156 6.06757813 -3.28148437 5.04921875 -4 4 C-3.67 3.01 -3.34 2.02 -3 1 C-2.01 0.67 -1.02 0.34 0 0 Z " fill="#68318B" transform="translate(203,185)"/>
<path d="M0 0 C1.92564723 2.88847084 2.70470659 4.9589885 3.65625 8.25390625 C4.10677734 9.78241211 4.10677734 9.78241211 4.56640625 11.34179688 C5.1898467 13.49253601 5.81223919 15.64357919 6.43359375 17.79492188 C6.73394531 18.81263672 7.03429687 19.83035156 7.34375 20.87890625 C7.61380859 21.8129126 7.88386719 22.74691895 8.16210938 23.70922852 C8.87446996 26.15525658 8.87446996 26.15525658 11 28 C9.68 28 8.36 28 7 28 C6.9071875 29.8253125 6.9071875 29.8253125 6.8125 31.6875 C6.38241131 34.97128527 5.95337446 36.06499318 3.9375 38.875 C0.17078617 41.59985681 -2.40811059 42.27112867 -7 43 C-9.24609375 42.5390625 -9.24609375 42.5390625 -11 42 C-1.58997722 37.77676538 -1.58997722 37.77676538 3 36 C2.56784656 29.26436715 1.36909558 23.06007483 -0.4765625 16.56640625 C-1 14 -1 14 0 11 C0.33 10.67 0.66 10.34 1 10 C0.67 9.34 0.34 8.68 0 8 C-0.13415472 5.3276379 -0.04318541 2.67749512 0 0 Z " fill="#612D87" transform="translate(243,175)"/>
<path d="M0 0 C0.66 0.33 1.32 0.66 2 1 C1.4740625 1.928125 1.4740625 1.928125 0.9375 2.875 C0.628125 3.57625 0.31875 4.2775 0 5 C0.33 5.66 0.66 6.32 1 7 C-0.10859375 7.61488281 -1.2171875 8.22976562 -2.359375 8.86328125 C-3.82300189 9.67953471 -5.28653884 10.49594944 -6.75 11.3125 C-7.47960937 11.71662109 -8.20921875 12.12074219 -8.9609375 12.53710938 C-12.48124399 14.50528073 -15.85961421 16.4463705 -19 19 C-16.03 19.33 -13.06 19.66 -10 20 C-10 20.33 -10 20.66 -10 21 C-13.96 21 -17.92 21 -22 21 C-22 19.68 -22 18.36 -22 17 C-22.99 17 -23.98 17 -25 17 C-25 16.34 -25 15.68 -25 15 C-24.113125 14.505 -23.22625 14.01 -22.3125 13.5 C-17.49803256 10.75309527 -12.79882399 7.81851223 -8.0859375 4.90234375 C-7.06757813 4.27457031 -6.04921875 3.64679687 -5 3 C-4.08476562 2.40316406 -3.16953125 1.80632813 -2.2265625 1.19140625 C-1.49179688 0.79824219 -0.75703125 0.40507813 0 0 Z " fill="#AD4593" transform="translate(225,52)"/>
<path d="M0 0 C2 2 2 2 2.4375 5.375 C2 9 2 9 -0.1875 11.5 C-3 13 -3 13 -5.625 12.9375 C-8.27319502 11.89215986 -9.47183949 11.41288502 -11 9 C-11.4375 5.5 -11.4375 5.5 -11 2 C-7.87890362 -1.99500336 -4.5824922 -1.10319257 0 0 Z " fill="#9D3D9C" transform="translate(133,166)"/>
<path d="M0 0 C0.99 0.66 1.98 1.32 3 2 C1.59315441 5.31149808 -0.0193725 7.07479365 -2.8125 9.3125 C-5.61367747 11.64933814 -7.68110967 13.79136941 -9.625 16.875 C-12 20 -12 20 -15.3125 20.9375 C-16.199375 20.958125 -17.08625 20.97875 -18 21 C-17.51085474 16.43464421 -15.86632543 14.30206668 -12.75 11 C-11.53183594 9.70255859 -11.53183594 9.70255859 -10.2890625 8.37890625 C-9.53367188 7.59386719 -8.77828125 6.80882813 -8 6 C-7.47148437 5.43152344 -6.94296875 4.86304688 -6.3984375 4.27734375 C-4.26068898 2.02811754 -3.00742865 1.00247622 0 0 Z " fill="#B64B9E" transform="translate(150,58)"/>
<path d="M0 0 C7.80660752 2.10989392 15.49849035 6.03357404 21 12 C19.68 11.67 18.36 11.34 17 11 C17.99 12.98 18.98 14.96 20 17 C16.92928287 15.5330485 14.00840543 13.85300814 11.07470703 12.13085938 C5.53116035 8.88513282 0.14104178 5.96513337 -6 4 C-6 3.67 -6 3.34 -6 3 C-4.02 2.67 -2.04 2.34 0 2 C0 1.34 0 0.68 0 0 Z " fill="#AE4596" transform="translate(250,46)"/>
<path d="M0 0 C0.33 0.99 0.66 1.98 1 3 C2.64678351 3.71437125 4.31787084 4.37337115 6 5 C7.73987953 6.09734043 9.4485388 7.2455207 11.125 8.4375 C11.97320312 9.03433594 12.82140625 9.63117188 13.6953125 10.24609375 C15.64309316 11.72838784 17.33162439 13.21712802 19 15 C18.67 15.66 18.34 16.32 18 17 C13.16119457 17.55351649 10.77345732 15.87053009 6.875 13.125 C5.84117187 12.40570313 4.80734375 11.68640625 3.7421875 10.9453125 C2.38480469 9.98238281 2.38480469 9.98238281 1 9 C0.01 8.34 -0.98 7.68 -2 7 C-1.34 4.69 -0.68 2.38 0 0 Z " fill="#9C4098" transform="translate(160,145)"/>
<path d="M0 0 C0.66 0 1.32 0 2 0 C2.33 0.99 2.66 1.98 3 3 C3.33 3.33 3.66 3.66 4 4 C3.52003343 9.01298423 1.85674736 13.27949356 -0.0625 17.875 C-0.34416016 18.56335938 -0.62582031 19.25171875 -0.91601562 19.9609375 C-1.60515266 21.64289909 -2.30180798 23.32177697 -3 25 C-3.33 25 -3.66 25 -4 25 C-4 23.02 -4 21.04 -4 19 C-4.66 19 -5.32 19 -6 19 C-6.33 19.99 -6.66 20.98 -7 22 C-7.33 21.34 -7.66 20.68 -8 20 C-6.94524432 17.31891713 -5.83514965 14.73467387 -4.625 12.125 C-3.96847618 10.69141868 -3.31473728 9.25655804 -2.6640625 7.8203125 C-2.22247803 6.86535889 -2.22247803 6.86535889 -1.77197266 5.89111328 C-0.97918693 3.94901391 -0.45962823 2.04424047 0 0 Z " fill="#A94391" transform="translate(163,109)"/>
<path d="M0 0 C0.33 0 0.66 0 1 0 C3.52112676 7.56338028 3.52112676 7.56338028 2 12 C1.34 12.66 0.68 13.32 0 14 C0.515625 14.391875 1.03125 14.78375 1.5625 15.1875 C2.036875 15.785625 2.51125 16.38375 3 17 C2.6875 19.6875 2.6875 19.6875 2 22 C0 19 0 19 -1 16 C-1.66 17.32 -2.32 18.64 -3 20 C-4.98 19.67 -6.96 19.34 -9 19 C-9.33 18.01 -9.66 17.02 -10 16 C-8.35 16.33 -6.7 16.66 -5 17 C-5.66 16.34 -6.32 15.68 -7 15 C-7 14.01 -7 13.02 -7 12 C-6.360625 11.71125 -5.72125 11.4225 -5.0625 11.125 C-2.84793921 10.17176549 -2.84793921 10.17176549 -2 8 C-2.99 7.67 -3.98 7.34 -5 7 C-3.68 6.67 -2.36 6.34 -1 6 C-1.020625 5.195625 -1.04125 4.39125 -1.0625 3.5625 C-1 1 -1 1 0 0 Z " fill="#56297F" transform="translate(304,190)"/>
<path d="M0 0 C5.40313243 6.90310651 9.371663 14.36981391 11 23 C10.34 23.33 9.68 23.66 9 24 C4.46321158 19.98170169 1.54222705 15.5063556 -1 10 C-1 9.34 -1 8.68 -1 8 C-0.34 8 0.32 8 1 8 C0.67 5.36 0.34 2.72 0 0 Z " fill="#713295" transform="translate(160,208)"/>
<path d="M0 0 C0 0.33 0 0.66 0 1 C-3.22861733 1.19789024 -6.45789727 1.38146345 -9.6875 1.5625 C-10.59951172 1.61857422 -11.51152344 1.67464844 -12.45117188 1.73242188 C-13.78051758 1.80493164 -13.78051758 1.80493164 -15.13671875 1.87890625 C-15.94842529 1.9260376 -16.76013184 1.97316895 -17.59643555 2.02172852 C-20.1789485 1.99838228 -22.48849909 1.5804792 -25 1 C-24.67 0.01 -24.34 -0.98 -24 -2 C-21.12686403 -2.44572759 -18.25541754 -2.8570128 -15.375 -3.25 C-14.16263672 -3.44335938 -14.16263672 -3.44335938 -12.92578125 -3.640625 C-7.15428696 -4.39138848 -4.42450721 -3.86607426 0 0 Z " fill="#C34DAB" transform="translate(158,102)"/>
<path d="M0 0 C0.66 0 1.32 0 2 0 C2 1.32 2 2.64 2 4 C3.65 4.33 5.3 4.66 7 5 C7 5.66 7 6.32 7 7 C8.32 7 9.64 7 11 7 C10.67 8.32 10.34 9.64 10 11 C9.01 10.34 8.02 9.68 7 9 C6.34 11.64 5.68 14.28 5 17 C4.34 17 3.68 17 3 17 C2.67 18.98 2.34 20.96 2 23 C1.34 22.34 0.68 21.68 0 21 C0.04408821 18.35176835 0.18698523 15.81673443 0.4375 13.1875 C0.85351942 8.63600043 1.20380693 4.47253815 0 0 Z " fill="#763687" transform="translate(188,176)"/>
<path d="M0 0 C3 2 3 2 4 5 C4.33 5.66 4.66 6.32 5 7 C7.52733235 7.65555119 7.52733235 7.65555119 10 8 C10 8.66 10 9.32 10 10 C9.13375 10.185625 8.2675 10.37125 7.375 10.5625 C3.42430357 12.24520403 1.89843835 14.15913281 -0.60546875 17.5390625 C-1.06566406 18.02117187 -1.52585938 18.50328125 -2 19 C-2.99 19 -3.98 19 -5 19 C-4.4983585 12.60407091 -4.4983585 12.60407091 -1.9375 9.5 C0.60353528 6.2212448 0.31703132 4.04214929 0 0 Z " fill="#944095" transform="translate(212,139)"/>
<path d="M0 0 C3.73487777 0.4979837 5.81237635 0.87491756 9 3 C8.071875 4.051875 8.071875 4.051875 7.125 5.125 C4.9572991 8.05777181 3.97344445 10.51182406 3 14 C2.67 13.01 2.34 12.02 2 11 C1.01 11 0.02 11 -1 11 C-0.9690625 12.2684375 -0.9690625 12.2684375 -0.9375 13.5625 C-1.0025983 17.14290649 -1.31086368 20.48540476 -2 24 C-2.66 24.33 -3.32 24.66 -4 25 C-3.74732168 16.82585626 -2.96279679 10.2155925 1 3 C1.33 2.34 1.66 1.68 2 1 C1.34 0.67 0.68 0.34 0 0 Z " fill="#552981" transform="translate(244,228)"/>
<path d="M0 0 C6.04619672 0.42816415 10.25718064 2.44499547 14.78515625 6.3671875 C16 8 16 8 16 12 C10.16403878 10.46422073 4.8387456 7.58121849 0 4 C-0.33 3.01 -0.66 2.02 -1 1 C-0.67 0.67 -0.34 0.34 0 0 Z " fill="#B34596" transform="translate(247,85)"/>
<path d="M0 0 C0.33 0.66 0.66 1.32 1 2 C2.98 2 4.96 2 7 2 C6.34 4.31 5.68 6.62 5 9 C6.32 8.67 7.64 8.34 9 8 C8.67 8.99 8.34 9.98 8 11 C6.68 11 5.36 11 4 11 C4 10.01 4 9.02 4 8 C3.34 8 2.68 8 2 8 C1.67 9.32 1.34 10.64 1 12 C-0.32 11.67 -1.64 11.34 -3 11 C-3.75 8.875 -3.75 8.875 -4 6 C-2.0625 2.6875 -2.0625 2.6875 0 0 Z " fill="#C644AD" transform="translate(87,143)"/>
<path d="M0 0 C1.21447147 3.72749319 1.06319084 7.17185885 0.875 11.0625 C0.83117187 12.29097656 0.78734375 13.51945313 0.7421875 14.78515625 C0 18 0 18 -1.94140625 19.953125 C-6.33593886 21.45725621 -10.23164394 21.073508 -14.8125 20.6875 C-16.13797852 20.5956543 -16.13797852 20.5956543 -17.49023438 20.50195312 C-19.66124391 20.3493957 -21.83082075 20.17668487 -24 20 C-21.08175756 18.33325679 -19.02405621 17.7567992 -15.671875 17.8046875 C-14.87265625 17.81113281 -14.0734375 17.81757813 -13.25 17.82421875 C-12.425 17.84097656 -11.6 17.85773438 -10.75 17.875 C-9.90953125 17.88402344 -9.0690625 17.89304688 -8.203125 17.90234375 C-6.13529396 17.92584183 -4.06761005 17.96171092 -2 18 C-2.02320313 17.03578125 -2.04640625 16.0715625 -2.0703125 15.078125 C-2.09738281 13.18320313 -2.09738281 13.18320313 -2.125 11.25 C-2.14820313 9.99703125 -2.17140625 8.7440625 -2.1953125 7.453125 C-2.01537302 4.27179508 -1.68998582 2.63478104 0 0 Z " fill="#582A7E" transform="translate(299,219)"/>
<path d="M0 0 C0.103125 0.639375 0.20625 1.27875 0.3125 1.9375 C0.539375 2.618125 0.76625 3.29875 1 4 C1.99 4.33 2.98 4.66 4 5 C3.51789063 5.73605469 3.03578125 6.47210938 2.5390625 7.23046875 C1.90742188 8.20628906 1.27578125 9.18210938 0.625 10.1875 C-0.00148437 11.15042969 -0.62796875 12.11335937 -1.2734375 13.10546875 C-2.81988312 15.69803936 -3.97508075 18.16853116 -5 21 C-5.98120464 17.94736336 -5.98120464 16.05263664 -5 13 C-5.66 13 -6.32 13 -7 13 C-5.58832253 7.73829306 -3.25149768 4.27828642 0 0 Z " fill="#893A8B" transform="translate(206,154)"/>
<path d="M0 0 C2.90783477 3.53094222 5.71858548 7.02864881 8 11 C7.75 13.375 7.75 13.375 7 15 C2.81860131 13.67993386 0.99929566 12.23241386 -1.375 8.5625 C-1.89835938 7.78003906 -2.42171875 6.99757812 -2.9609375 6.19140625 C-4 4 -4 4 -3 1 C-2.01 0.67 -1.02 0.34 0 0 Z " fill="#78338F" transform="translate(203,185)"/>
<path d="M0 0 C2.5625 0.375 2.5625 0.375 4.375 2.375 C4.766875 3.035 5.15875 3.695 5.5625 4.375 C4.51375002 6.99687494 3.91318687 8.16871361 1.4375 9.625 C0.81875 9.8725 0.2 10.12 -0.4375 10.375 C-2.4375 9.1875 -2.4375 9.1875 -4.4375 7.375 C-4.8125 4.8125 -4.8125 4.8125 -4.4375 2.375 C-2.4375 0.375 -2.4375 0.375 0 0 Z " fill="#BD46A4" transform="translate(132.4375,123.625)"/>
<path d="M0 0 C2.375 0.6875 2.375 0.6875 3.375 1.6875 C3.41580783 3.68708364 3.41754356 5.68795254 3.375 7.6875 C1.125 8.875 1.125 8.875 -1.625 9.6875 C-3.9375 8.625 -3.9375 8.625 -5.625 6.6875 C-6.0625 4.125 -6.0625 4.125 -5.625 1.6875 C-2.625 -0.3125 -2.625 -0.3125 0 0 Z " fill="#713482" transform="translate(133.625,204.3125)"/>
<path d="M0 0 C2.95529457 0.36040178 3.75137927 1.02476855 5.5625 3.3125 C4.875 5.75 4.875 5.75 3.5625 8.3125 C1.125 9.25 1.125 9.25 -1.4375 9.3125 C-2.4275 8.6525 -3.4175 7.9925 -4.4375 7.3125 C-4.75 4.8125 -4.75 4.8125 -4.4375 2.3125 C-2.4375 0.3125 -2.4375 0.3125 0 0 Z " fill="#8C3B90" transform="translate(104.4375,183.6875)"/>
<path d="M0 0 C1.72274487 2.58411731 2.68895522 4.54902656 3.6875 7.4375 C3.95949219 8.19933594 4.23148438 8.96117187 4.51171875 9.74609375 C5.04729142 12.21829721 4.80445309 13.62983284 4 16 C3.67 15.34 3.34 14.68 3 14 C2.95758277 16.33294775 2.95907063 18.66702567 3 21 C3.33 21.33 3.66 21.66 4 22 C4.14115161 24.67058851 4.04247107 27.32432238 4 30 C2.20432025 26.74582055 1.22618137 23.53428471 0.3125 19.9375 C-0.09548828 18.37322266 -0.09548828 18.37322266 -0.51171875 16.77734375 C-1 14 -1 14 0 11 C0.33 10.67 0.66 10.34 1 10 C0.67 9.34 0.34 8.68 0 8 C-0.13415472 5.3276379 -0.04318541 2.67749512 0 0 Z " fill="#592B71" transform="translate(243,175)"/>
<path d="M0 0 C0.91058531 3.07322544 1.08886184 5.80097361 1 9 C1.99 7.68 2.98 6.36 4 5 C3.68798326 7.04174058 3.37536431 9.08338913 3.0625 11.125 C2.88847656 12.26195312 2.71445313 13.39890625 2.53515625 14.5703125 C2.04410734 17.71732669 1.52981281 20.85930783 1 24 C0.67 24 0.34 24 0 24 C-0.1953125 21.94921875 -0.390625 19.8984375 -0.5859375 17.84765625 C-0.79089844 16.93306641 -0.79089844 16.93306641 -1 16 C-1.66 15.67 -2.32 15.34 -3 15 C-2.5547115 9.72684667 -1.91626837 4.98229776 0 0 Z " fill="#652E7B" transform="translate(188,188)"/>
<path d="M0 0 C-0.33 0.33 -0.66 0.66 -1 1 C-0.02160156 0.89171875 -0.02160156 0.89171875 0.9765625 0.78125 C5.6737056 0.28243834 10.26852656 -0.12451246 15 0 C15 0.33 15 0.66 15 1 C12.4604163 1.67561372 9.91881165 2.34065828 7.375 3 C6.66214844 3.19078125 5.94929687 3.3815625 5.21484375 3.578125 C1.04151456 4.65017287 -2.65178751 5.21946814 -7 5 C-7.33 4.01 -7.66 3.02 -8 2 C-6.14210462 -1.71579076 -3.44525918 -1.06921837 0 0 Z " fill="#AD4496" transform="translate(179,44)"/>
<path d="M0 0 C0.33 0 0.66 0 1 0 C1.28875 1.175625 1.5775 2.35125 1.875 3.5625 C2.83313721 7.4018927 3.89205511 11.2013318 5 15 C4.01 15.66 3.02 16.32 2 17 C0.02 14.03 -1.96 11.06 -4 8 C-3.34 8 -2.68 8 -2 8 C-1.34 5.36 -0.68 2.72 0 0 Z " fill="#863587" transform="translate(226,139)"/>
<path d="M0 0 C4.62 2.31 9.24 4.62 14 7 C10 9 10 9 7 10 C3.8125 8.5625 3.8125 8.5625 1 7 C1.33 6.01 1.66 5.02 2 4 C1.34 3.67 0.68 3.34 0 3 C0 2.01 0 1.02 0 0 Z " fill="#A94391" transform="translate(176,104)"/>
<path d="M0 0 C0.33 0 0.66 0 1 0 C1.66 2.64 2.32 5.28 3 8 C3.66 8 4.32 8 5 8 C5 5.69 5 3.38 5 1 C5.33 1 5.66 1 6 1 C6.33 5.29 6.66 9.58 7 14 C6.01 14 5.02 14 4 14 C3.67 15.32 3.34 16.64 3 18 C1.68 18 0.36 18 -1 18 C-0.67 17.34 -0.34 16.68 0 16 C0.66 16.33 1.32 16.66 2 17 C1.855625 16.27554688 1.71125 15.55109375 1.5625 14.8046875 C0.60449608 9.81508377 -0.27607149 5.10732262 0 0 Z " fill="#4E2571" transform="translate(183,226)"/>
<path d="M0 0 C1 3 1 3 0.25 5.125 C-1 7 -1 7 -4 8 C-6.9512645 9.47563225 -7.06923915 11.50079352 -8.125 14.5625 C-8.47820312 15.57441406 -8.83140625 16.58632812 -9.1953125 17.62890625 C-9.46085938 18.41136719 -9.72640625 19.19382813 -10 20 C-10.33 20 -10.66 20 -11 20 C-11.89950019 13.06099855 -9.97546779 9.69690639 -5.921875 4.1015625 C-4.02912881 2.03185224 -2.57739199 1.03779943 0 0 Z " fill="#984097" transform="translate(256,124)"/>
<path d="M0 0 C1.41750563 0.11509661 2.83401169 0.24253658 4.25 0.375 C5.03890625 0.44460937 5.8278125 0.51421875 6.640625 0.5859375 C9.085877 1.01507113 10.84836903 1.78600638 13 3 C11.35 3 9.7 3 8 3 C7.67 3.66 7.34 4.32 7 5 C7.99 5.33 8.98 5.66 10 6 C6.22628488 7.3357457 3.14168653 6.72408671 -0.75 6.0625 C-1.92046875 5.86785156 -3.0909375 5.67320313 -4.296875 5.47265625 C-5.63492188 5.23869141 -5.63492188 5.23869141 -7 5 C-7 4.67 -7 4.34 -7 4 C-4.69 4 -2.38 4 0 4 C0 2.68 0 1.36 0 0 Z " fill="#A4448E" transform="translate(216,73)"/>
<path d="M0 0 C2.31 0.33 4.62 0.66 7 1 C6.67 1.99 6.34 2.98 6 4 C5.84854901 6.2825699 5.75113021 8.56887706 5.68359375 10.85546875 C5.66281265 11.51710526 5.64203156 12.17874176 5.62062073 12.86042786 C5.55535273 14.96934852 5.49634656 17.07839135 5.4375 19.1875 C5.39429311 20.61915315 5.35067812 22.05079404 5.30664062 23.48242188 C5.19969494 26.98815154 5.09836359 30.49401786 5 34 C4.67 34 4.34 34 4 34 C3.67 24.76 3.34 15.52 3 6 C2.01 6 1.02 6 0 6 C0 4.02 0 2.04 0 0 Z " fill="#762F72" transform="translate(149,153)"/>
<path d="M0 0 C0.66 0.33 1.32 0.66 2 1 C1.67 1.66 1.34 2.32 1 3 C2.32 3.33 3.64 3.66 5 4 C2.03 6.31 -0.94 8.62 -4 11 C-4.33 9.68 -4.66 8.36 -5 7 C-6.32 7.33 -7.64 7.66 -9 8 C-6.14723863 5.06799526 -3.34920216 2.35684596 0 0 Z " fill="#984190" transform="translate(236,124)"/>
<path d="M0 0 C3.63 0.33 7.26 0.66 11 1 C11 1.66 11 2.32 11 3 C10.34 3.66 9.68 4.32 9 5 C8.83312552 7.58354218 8.83312552 7.58354218 9 10 C8.34 9.01 7.68 8.02 7 7 C4.40729301 6.45524022 1.99548055 6.07599851 -0.625 5.8125 C-1.33140625 5.73064453 -2.0378125 5.64878906 -2.765625 5.56445312 C-4.5090683 5.36419275 -6.25440086 5.18050599 -8 5 C-8 4.67 -8 4.34 -8 4 C-2.555 3.505 -2.555 3.505 3 3 C2.01 2.01 1.02 1.02 0 0 Z " fill="#9D4187" transform="translate(154,99)"/>
<path d="M0 0 C0.67095703 0.63228516 0.67095703 0.63228516 1.35546875 1.27734375 C5.98399766 5.5377979 5.98399766 5.5377979 12 7 C12 7.33 12 7.66 12 8 C10.906875 8.309375 9.81375 8.61875 8.6875 8.9375 C6.44592006 9.58337897 4.2130649 10.2623117 2 11 C0.35 8.69 -1.3 6.38 -3 4 C-2.01 4 -1.02 4 0 4 C0 2.68 0 1.36 0 0 Z " fill="#904189" transform="translate(211,127)"/>
<path d="M0 0 C0.66 0.66 1.32 1.32 2 2 C0.906875 2.103125 -0.18625 2.20625 -1.3125 2.3125 C-4.84904021 2.72205298 -4.84904021 2.72205298 -6.875 4.25 C-8.29035995 6.45167104 -8.65198447 8.42468508 -9 11 C-8.34 11 -7.68 11 -7 11 C-7.33 12.32 -7.66 13.64 -8 15 C-11 13 -11 13 -11.875 11.3125 C-12.07114294 7.68385563 -10.64656461 5.17551747 -9 2 C-5.54754176 -0.30163882 -4.05261287 -0.34490322 0 0 Z " fill="#A63E81" transform="translate(95,100)"/>
<path d="M0 0 C6.5508985 0.45759953 12.6753842 1.2100144 19 3 C19 3.33 19 3.66 19 4 C16.36 4 13.72 4 11 4 C11 4.66 11 5.32 11 6 C11.66 6.33 12.32 6.66 13 7 C10.03 6.67 7.06 6.34 4 6 C5.32 5.67 6.64 5.34 8 5 C8 4.34 8 3.68 8 3 C6.68 3.33 5.36 3.66 4 4 C3.67 3.34 3.34 2.68 3 2 C2.01 1.34 1.02 0.68 0 0 Z " fill="#A5418B" transform="translate(222,39)"/>
<path d="M0 0 C-0.99 0.495 -0.99 0.495 -2 1 C-2.33 1.99 -2.66 2.98 -3 4 C-3.81984375 3.98839844 -4.6396875 3.97679687 -5.484375 3.96484375 C-6.56203125 3.95582031 -7.6396875 3.94679687 -8.75 3.9375 C-9.81734375 3.92589844 -10.8846875 3.91429687 -11.984375 3.90234375 C-14.53368501 3.98489913 -16.57933591 4.25382442 -19 5 C-19.33 4.34 -19.66 3.68 -20 3 C-13.19925959 1.09579269 -7.08076251 -0.40850553 0 0 Z " fill="#C74FAE" transform="translate(197,41)"/>
<path d="M0 0 C2.74792483 3.40219265 6 7.48464588 6 12 C5.01 12.495 5.01 12.495 4 13 C3.67 13.99 3.34 14.98 3 16 C0.84622436 13.37801226 -0.40072174 11.35595828 -1 8 C-0.34 8 0.32 8 1 8 C0.67 5.36 0.34 2.72 0 0 Z " fill="#663280" transform="translate(160,208)"/>
<path d="M0 0 C2.71882869 4.07824304 2.42566777 7.57517292 2.65625 12.3828125 C2.7696875 13.24648437 2.883125 14.11015625 3 15 C3.66 15.33 4.32 15.66 5 16 C4.01 16.33 3.02 16.66 2 17 C0 16 0 16 -0.703125 14.1796875 C-2.00558711 8.69074005 -2.02278699 5.28172159 0 0 Z " fill="#703287" transform="translate(241,170)"/>
<path d="M0 0 C1.32 0.33 2.64 0.66 4 1 C3.67 2.65 3.34 4.3 3 6 C4.65 6.33 6.3 6.66 8 7 C8 6.34 8 5.68 8 5 C8.99 5.33 9.98 5.66 11 6 C8.8125 7.625 8.8125 7.625 6 9 C3.1875 8.1875 3.1875 8.1875 1 7 C-0.2981424 8.1490712 -0.2981424 8.1490712 -1 11 C-2 10 -2 10 -2.1875 6.625 C-2 3 -2 3 0 0 Z " fill="#633282" transform="translate(296,174)"/>
<path d="M0 0 C-0.33 0.99 -0.66 1.98 -1 3 C1.31 3 3.62 3 6 3 C6 3.99 6 4.98 6 6 C5.34 5.67 4.68 5.34 4 5 C2.29297265 4.93003986 0.58331997 4.91559846 -1.125 4.9375 C-2.03507813 4.94652344 -2.94515625 4.95554687 -3.8828125 4.96484375 C-4.58148438 4.97644531 -5.28015625 4.98804687 -6 5 C-5.67 4.01 -5.34 3.02 -5 2 C-7.64 2 -10.28 2 -13 2 C-8.62836676 -0.42868513 -4.86219789 -1.62073263 0 0 Z " fill="#943C80" transform="translate(183,74)"/>
<path d="M0 0 C0.33 0 0.66 0 1 0 C1.36503943 3.01987161 1.71730228 6.04034965 2.0625 9.0625 C2.16626953 9.91005859 2.27003906 10.75761719 2.37695312 11.63085938 C2.94186047 16.67606633 2.96798903 21.01113348 2 26 C1.34 26 0.68 26 0 26 C-1.04616643 22.8615007 -1.04169366 20.94961697 -0.87890625 17.67578125 C-0.83056641 16.64775391 -0.78222656 15.61972656 -0.73242188 14.56054688 C-0.67634766 13.48869141 -0.62027344 12.41683594 -0.5625 11.3125 C-0.51029297 10.22904297 -0.45808594 9.14558594 -0.40429688 8.02929688 C-0.27458784 5.35257409 -0.13962067 2.67622112 0 0 Z M0 18 C1 21 1 21 1 21 Z " fill="#491966" transform="translate(275,180)"/>
<path d="M0 0 C0.25 5.625 0.25 5.625 -2 9 C-2.99 8.67 -3.98 8.34 -5 8 C-4.67 6.68 -4.34 5.36 -4 4 C-5.32 4 -6.64 4 -8 4 C-8 3.01 -8 2.02 -8 1 C-5.23735711 0.40267181 -2.83967231 0 0 0 Z " fill="#A73F9F" transform="translate(263,115)"/>
<path d="M0 0 C0.33 0.66 0.66 1.32 1 2 C0.67 2.66 0.34 3.32 0 4 C-2.64860427 4.59355614 -5.29197322 4.74209269 -8 5 C-8 5.99 -8 6.98 -8 8 C-7.34 8.33 -6.68 8.66 -6 9 C-7.98 9.66 -9.96 10.32 -12 11 C-11.814375 10.38125 -11.62875 9.7625 -11.4375 9.125 C-10.76313824 6.95839822 -10.76313824 6.95839822 -12 5 C-8.04 3.35 -4.08 1.7 0 0 Z " fill="#A3408D" transform="translate(263,111)"/>
<path d="M0 0 C4.31392226 0.4793247 6.16569547 1.7457985 9 5 C7.68 4.67 6.36 4.34 5 4 C5.99 5.98 6.98 7.96 8 10 C4.88626628 8.50079488 1.87771795 6.91847864 -1 5 C-1 4.34 -1 3.68 -1 3 C-0.34 3 0.32 3 1 3 C0.67 2.01 0.34 1.02 0 0 Z " fill="#A33F8C" transform="translate(262,53)"/>
<path d="M0 0 C0.66 0 1.32 0 2 0 C2.33 1.32 2.66 2.64 3 4 C2.01 4 1.02 4 0 4 C0 4.66 0 5.32 0 6 C1.65 6.33 3.3 6.66 5 7 C4.67 7.66 4.34 8.32 4 9 C2.35 9 0.7 9 -1 9 C-1.33 9.66 -1.66 10.32 -2 11 C-2.92817192 7.37169157 -3.26901295 5.58926645 -1.6875 2.125 C-0.8521875 1.073125 -0.8521875 1.073125 0 0 Z " fill="#7430A2" transform="translate(308,168)"/>
<path d="M0 0 C0.99 0.33 1.98 0.66 3 1 C2.88655624 3.1464753 2.75893655 5.29220592 2.625 7.4375 C2.52058594 9.22994141 2.52058594 9.22994141 2.4140625 11.05859375 C2.27742187 12.02925781 2.14078125 12.99992188 2 14 C1.01 14.495 1.01 14.495 0 15 C-0.84604751 12.05897771 -1.13522521 9.43233732 -1.125 6.375 C-1.12757813 5.59898437 -1.13015625 4.82296875 -1.1328125 4.0234375 C-1 2 -1 2 0 0 Z " fill="#A341A4" transform="translate(150,157)"/>
<path d="M0 0 C0.33 0.66 0.66 1.32 1 2 C0.0625 4.125 0.0625 4.125 -1 6 C-0.34 6 0.32 6 1 6 C0.71872579 7.48117801 0.42466268 8.95993249 0.125 10.4375 C-0.03742188 11.26121094 -0.19984375 12.08492187 -0.3671875 12.93359375 C-0.57601562 13.61550781 -0.78484375 14.29742187 -1 15 C-1.99 15.495 -1.99 15.495 -3 16 C-2.67 13.36 -2.34 10.72 -2 8 C-2.66 8 -3.32 8 -4 8 C-2.25 2.25 -2.25 2.25 0 0 Z " fill="#803885" transform="translate(203,159)"/>
<path d="M0 0 C4.05910468 1.35303489 4.9213069 3.34436731 7 7 C7 8.32 7 9.64 7 11 C5 10 5 10 2 8 C1.34 7.67 0.68 7.34 0 7 C0 4.69 0 2.38 0 0 Z " fill="#B44498" transform="translate(286,74)"/>
<path d="M0 0 C2.97 0 5.94 0 9 0 C9 0.66 9 1.32 9 2 C10.32 2 11.64 2 13 2 C13 2.66 13 3.32 13 4 C8.02398374 5.71050559 4.57383705 4.00885647 0 2 C0 1.34 0 0.68 0 0 Z " fill="#C650AC" transform="translate(217,40)"/>
<path d="M0 0 C2.97 0 5.94 0 9 0 C8.34 1.65 7.68 3.3 7 5 C5.35 5 3.7 5 2 5 C1.34 3.35 0.68 1.7 0 0 Z " fill="#5F2B8B" transform="translate(207,254)"/>
<path d="M0 0 C1.5 1.25 1.5 1.25 3 3 C3 4.32 3 5.64 3 7 C2.34 7 1.68 7 1 7 C1.30035156 7.54269531 1.60070312 8.08539063 1.91015625 8.64453125 C2.29042969 9.35996094 2.67070312 10.07539063 3.0625 10.8125 C3.63677734 11.87404297 3.63677734 11.87404297 4.22265625 12.95703125 C5 15 5 15 4 18 C0.17739293 11.54521713 -1.78739314 7.42455611 0 0 Z " fill="#77347F" transform="translate(230,150)"/>
<path d="M0 0 C0.33 0 0.66 0 1 0 C1 1.65 1 3.3 1 5 C1.99 5 2.98 5 4 5 C3.45276317 8.37462715 2.9451 10.08235 1 13 C1 11.02 1 9.04 1 7 C0.34 7 -0.32 7 -1 7 C-1.33 7.99 -1.66 8.98 -2 10 C-3 8 -3 8 -2.44140625 6.0546875 C-2.15136719 5.33539063 -1.86132812 4.61609375 -1.5625 3.875 C-1.27503906 3.15054688 -0.98757812 2.42609375 -0.69140625 1.6796875 C-0.46324219 1.12539062 -0.23507813 0.57109375 0 0 Z " fill="#973B83" transform="translate(158,121)"/>
<path d="M0 0 C1.8871875 0.0309375 1.8871875 0.0309375 3.8125 0.0625 C3.4825 1.0525 3.1525 2.0425 2.8125 3.0625 C-0.8175 3.3925 -4.4475 3.7225 -8.1875 4.0625 C-7.8575 3.0725 -7.5275 2.0825 -7.1875 1.0625 C-4.43671116 0.14557039 -2.82801087 -0.04636083 0 0 Z " fill="#C54BAB" transform="translate(174.1875,75.9375)"/>
<path d="M0 0 C1 3 1 3 0.0625 5.0625 C-2.86048166 7.80833126 -6.04132181 8.61249023 -10 9 C-12.25390625 8.54296875 -12.25390625 8.54296875 -14 8 C-4.58997722 3.77676538 -4.58997722 3.77676538 0 2 C0 1.34 0 0.68 0 0 Z " fill="#562A7E" transform="translate(246,209)"/>
<path d="M0 0 C0.66 0 1.32 0 2 0 C2.33 1.98 2.66 3.96 3 6 C3.66 6 4.32 6 5 6 C5 7.98 5 9.96 5 12 C4.01 11.67 3.02 11.34 2 11 C0.60955102 7.12137916 0 4.13537997 0 0 Z " fill="#903C9E" transform="translate(149,181)"/>
<path d="M0 0 C2.5625 0.375 2.5625 0.375 4.375 2.375 C4.766875 3.035 5.15875 3.695 5.5625 4.375 C4.9025 5.695 4.2425 7.015 3.5625 8.375 C3.2325 8.375 2.9025 8.375 2.5625 8.375 C2.5625 6.395 2.5625 4.415 2.5625 2.375 C0.5825 2.705 -1.3975 3.035 -3.4375 3.375 C-3.7675 4.695 -4.0975 6.015 -4.4375 7.375 C-4.5625 5 -4.5625 5 -4.4375 2.375 C-2.4375 0.375 -2.4375 0.375 0 0 Z " fill="#94407F" transform="translate(132.4375,123.625)"/>
<path d="M0 0 C0.33 0 0.66 0 1 0 C1.33 3.63 1.66 7.26 2 11 C1.34 11 0.68 11 0 11 C-0.33 11.66 -0.66 12.32 -1 13 C-1.22151549 11.20991533 -1.42682213 9.41781838 -1.625 7.625 C-1.74101562 6.62726563 -1.85703125 5.62953125 -1.9765625 4.6015625 C-1.98429688 3.74304688 -1.99203125 2.88453125 -2 2 C-1.34 1.34 -0.68 0.68 0 0 Z " fill="#68319B" transform="translate(186,223)"/>
<path d="M0 0 C2.0625 0.4375 2.0625 0.4375 4 1 C3.67 1.66 3.34 2.32 3 3 C4.98 3 6.96 3 9 3 C9.33 3.99 9.66 4.98 10 6 C6.37 6 2.74 6 -1 6 C-1 1 -1 1 0 0 Z " fill="#532A77" transform="translate(228,218)"/>
<path d="M0 0 C3.3 1.98 6.6 3.96 10 6 C7 7 7 7 4 6 C4 6.66 4 7.32 4 8 C1.525 7.01 1.525 7.01 -1 6 C-0.34 5.67 0.32 5.34 1 5 C1.66 5.33 2.32 5.66 3 6 C3 5.34 3 4.68 3 4 C2.34 4 1.68 4 1 4 C0.67 2.68 0.34 1.36 0 0 Z " fill="#723483" transform="translate(162,202)"/>
<path d="M0 0 C1.5 1.0625 1.5 1.0625 3 3 C3.1875 6.6875 3.1875 6.6875 3 10 C2.34 10 1.68 10 1 10 C-2 4.25 -2 4.25 -2 2 C-1.34 2 -0.68 2 0 2 C0 1.34 0 0.68 0 0 Z " fill="#90399D" transform="translate(233,155)"/>
<path d="M0 0 C0.99 0 1.98 0 3 0 C4.50662097 3.01324195 4.17770373 5.68286377 4 9 C3.34 9.66 2.68 10.32 2 11 C0.80712589 7.12315913 0 4.08378077 0 0 Z " fill="#823497" transform="translate(237,166)"/>
<path d="M0 0 C0.66 0.33 1.32 0.66 2 1 C1.649375 1.61875 1.29875 2.2375 0.9375 2.875 C0.4734375 3.926875 0.4734375 3.926875 0 5 C0.33 5.66 0.66 6.32 1 7 C-0.98 7.66 -2.96 8.32 -5 9 C-5 8.01 -5 7.02 -5 6 C-4.34 6 -3.68 6 -3 6 C-3 5.34 -3 4.68 -3 4 C-3.66 3.67 -4.32 3.34 -5 3 C-2.625 1.4375 -2.625 1.4375 0 0 Z " fill="#A0448C" transform="translate(225,52)"/>
<path d="M0 0 C0.99 0 1.98 0 3 0 C3.33 1.98 3.66 3.96 4 6 C3.01 6.66 2.02 7.32 1 8 C1 7.01 1 6.02 1 5 C-0.98 5.99 -0.98 5.99 -3 7 C-3.66 6.34 -4.32 5.68 -5 5 C-3.02 4.01 -1.04 3.02 1 2 C0.67 1.34 0.34 0.68 0 0 Z " fill="#572A78" transform="translate(310,178)"/>
<path d="M0 0 C2.96404505 2.80804268 5.44499019 5.18315774 7 9 C4.36 8.67 1.72 8.34 -1 8 C-1 7.34 -1 6.68 -1 6 C-0.01 6 0.98 6 2 6 C1.34 4.02 0.68 2.04 0 0 Z " fill="#632C88" transform="translate(309,166)"/>
<path d="M0 0 C1.32 0 2.64 0 4 0 C4 0.66 4 1.32 4 2 C3.34 2 2.68 2 2 2 C2 4.31 2 6.62 2 9 C1.01 9 0.02 9 -1 9 C-1.125 2.25 -1.125 2.25 0 0 Z " fill="#B846A1" transform="translate(160,117)"/>
<path d="M0 0 C0.33 0.99 0.66 1.98 1 3 C0.01 4.485 0.01 4.485 -1 6 C-0.34 6.33 0.32 6.66 1 7 C-1.31 7 -3.62 7 -6 7 C-5.67 5.68 -5.34 4.36 -5 3 C-3.35 2.67 -1.7 2.34 0 2 C0 1.34 0 0.68 0 0 Z " fill="#B24798" transform="translate(188,70)"/>
<path d="M0 0 C2.31 0.33 4.62 0.66 7 1 C6.67 2.65 6.34 4.3 6 6 C3.36 5.67 0.72 5.34 -2 5 C-1.01 4.01 -0.02 3.02 1 2 C0.67 1.34 0.34 0.68 0 0 Z " fill="#4C267D" transform="translate(203,252)"/>
<path d="M0 0 C0 1.65 0 3.3 0 5 C-1.98 5.99 -1.98 5.99 -4 7 C-4 6.01 -4 5.02 -4 4 C-4.99 3.67 -5.98 3.34 -7 3 C-2.25 0 -2.25 0 0 0 Z " fill="#9F419A" transform="translate(231,131)"/>
<path d="M0 0 C-0.33 2.31 -0.66 4.62 -1 7 C-2.32 7 -3.64 7 -5 7 C-4.625 4.0625 -4.625 4.0625 -4 1 C-2 0 -2 0 0 0 Z " fill="#C449AC" transform="translate(180,91)"/>
<path d="M0 0 C5.75 1.75 5.75 1.75 8 4 C7.01 4.99 6.02 5.98 5 7 C4.67 6.01 4.34 5.02 4 4 C1.98491642 3.26676204 1.98491642 3.26676204 0 3 C0 2.01 0 1.02 0 0 Z " fill="#C346A8" transform="translate(267,57)"/>
<path d="M0 0 C0.66 0.33 1.32 0.66 2 1 C2 1.66 2 2.32 2 3 C2.66 3.66 3.32 4.32 4 5 C0.66777687 6.11074104 -1.62074182 5.88927847 -5 5 C-5.66 4.67 -6.32 4.34 -7 4 C-1.7265625 0.77734375 -1.7265625 0.77734375 0 0 Z " fill="#AA4087" transform="translate(162,49)"/>
<path d="M0 0 C1.91750286 0.08743331 3.83406665 0.1956189 5.75 0.3125 C6.81734375 0.37050781 7.8846875 0.42851562 8.984375 0.48828125 C12.1821068 1.03090154 13.62598691 1.85071145 16 4 C10.43109483 3.52013969 5.32932432 2.70084819 0 1 C0 0.67 0 0.34 0 0 Z " fill="#4F2975" transform="translate(258,234)"/>
<path d="M0 0 C0.33 0 0.66 0 1 0 C1.28571429 7.42857143 1.28571429 7.42857143 -1 11 C-2.1875 8.3125 -2.1875 8.3125 -3 5 C-1.6875 2.125 -1.6875 2.125 0 0 Z " fill="#A3428D" transform="translate(86,144)"/>
<path d="M0 0 C0.99 0.33 1.98 0.66 3 1 C2.67 2.65 2.34 4.3 2 6 C2.66 6 3.32 6 4 6 C3.67 7.32 3.34 8.64 3 10 C0 8 0 8 -0.75 6.125 C-1.02298092 3.80466218 -0.71043724 2.21024918 0 0 Z " fill="#AE4392" transform="translate(84,105)"/>
<path d="M0 0 C2.97 0.495 2.97 0.495 6 1 C6 1.66 6 2.32 6 3 C5.34 3 4.68 3 4 3 C3.67 3.99 3.34 4.98 3 6 C2.01 5.67 1.02 5.34 0 5 C0 3.35 0 1.7 0 0 Z " fill="#7B3492" transform="translate(128,206)"/>
<path d="M0 0 C2.86724686 0.57344937 3.8614515 0.8614515 6 3 C5.01 3 4.02 3 3 3 C3.33 5.31 3.66 7.62 4 10 C1.7448078 7.7448078 1.02276532 5.9952413 0 3 C0 2.01 0 1.02 0 0 Z " fill="#5D2F74" transform="translate(255,175)"/>
<path d="M0 0 C4.38332057 0.82187261 8.67940177 1.90154282 13 3 C9.79984144 4.06671952 8.11455706 3.94845472 4.8125 3.5625 C3.91144531 3.46066406 3.01039063 3.35882813 2.08203125 3.25390625 C1.39496094 3.17011719 0.70789063 3.08632812 0 3 C0 2.01 0 1.02 0 0 Z " fill="#D263BE" transform="translate(133,100)"/>
<path d="M0 0 C1.65 0.99 3.3 1.98 5 3 C3.35 4.65 1.7 6.3 0 8 C0 6.68 0 5.36 0 4 C-0.99 4.33 -1.98 4.66 -3 5 C-3 4.34 -3 3.68 -3 3 C-2.34 3 -1.68 3 -1 3 C-0.67 2.01 -0.34 1.02 0 0 Z " fill="#A5428F" transform="translate(185,81)"/>
<path d="M0 0 C2.31 0.33 4.62 0.66 7 1 C7 2.32 7 3.64 7 5 C5.1875 5.6875 5.1875 5.6875 3 6 C1.25 4.75 1.25 4.75 0 3 C0 2.01 0 1.02 0 0 Z " fill="#C751AD" transform="translate(223,75)"/>
<path d="M0 0 C0 0.66 0 1.32 0 2 C-1.75 3.125 -1.75 3.125 -4 4 C-6.25 3.125 -6.25 3.125 -8 2 C-8 1.34 -8 0.68 -8 0 C-4.71023192 -1.09658936 -3.28696233 -0.79953138 0 0 Z " fill="#B64B9D" transform="translate(162,54)"/>
<path d="M0 0 C4.875 2.625 4.875 2.625 6 6 C5.34 6 4.68 6 4 6 C4 6.66 4 7.32 4 8 C3.34 8 2.68 8 2 8 C0.74335022 5.09399739 0 3.20395416 0 0 Z " fill="#6A309B" transform="translate(214,212)"/>
<path d="M0 0 C3.96 1.98 3.96 1.98 8 4 C6 5 6 5 3 6 C2.01 6.495 2.01 6.495 1 7 C0.34 6.34 -0.32 5.68 -1 5 C-0.625 2.375 -0.625 2.375 0 0 Z " fill="#993884" transform="translate(244,81)"/>
<path d="M0 0 C2.64 0 5.28 0 8 0 C8.33 0.99 8.66 1.98 9 3 C5.79937313 4.60031344 3.27728194 3.03173691 0 2 C0 1.34 0 0.68 0 0 Z " fill="#C54BAD" transform="translate(233,43)"/>
<path d="M0 0 C0.66 0 1.32 0 2 0 C2 0.66 2 1.32 2 2 C3.32 2 4.64 2 6 2 C6 2.66 6 3.32 6 4 C3.09399739 5.25664978 1.20395416 6 -2 6 C-2 5.34 -2 4.68 -2 4 C-1.34 3.67 -0.68 3.34 0 3 C0 2.01 0 1.02 0 0 Z " fill="#5A2C8C" transform="translate(293,195)"/>
<path d="M0 0 C0.33 1.32 0.66 2.64 1 4 C-0.6875 5.125 -0.6875 5.125 -3 6 C-5.75 5.125 -5.75 5.125 -8 4 C-7.34 3.34 -6.68 2.68 -6 2 C-2.875 2.375 -2.875 2.375 0 3 C0 2.01 0 1.02 0 0 Z " fill="#B348A3" transform="translate(97,151)"/>
<path d="M0 0 C1.1577506 3.47325181 1.06866652 6.36067448 1 10 C0.01 9.67 -0.98 9.34 -2 9 C-2.33 6.69 -2.66 4.38 -3 2 C-2.01 1.34 -1.02 0.68 0 0 Z " fill="#9F408B" transform="translate(158,134)"/>
<path d="M0 0 C0.66 0 1.32 0 2 0 C2 1.98 2 3.96 2 6 C0.02 6.99 0.02 6.99 -2 8 C-2.20086443 4.28400809 -2.1519437 3.22791555 0 0 Z " fill="#BB49A8" transform="translate(157,128)"/>
<path d="M0 0 C1.65 0 3.3 0 5 0 C5.33 0.99 5.66 1.98 6 3 C4.02 3.33 2.04 3.66 0 4 C0 2.68 0 1.36 0 0 Z " fill="#BA499F" transform="translate(164,49)"/>
<path d="M0 0 C0.66 0 1.32 0 2 0 C1.125 5.75 1.125 5.75 0 8 C-0.33 8.99 -0.66 9.98 -1 11 C-2 10 -2 10 -2.1875 6.625 C-2 3 -2 3 0 0 Z " fill="#5D2781" transform="translate(296,174)"/>
<path d="M0 0 C0.99 0.33 1.98 0.66 3 1 C3 1.66 3 2.32 3 3 C3.66 3.33 4.32 3.66 5 4 C2.75 4.75 2.75 4.75 0 5 C-2.3125 3.0625 -2.3125 3.0625 -4 1 C-2.68 1.33 -1.36 1.66 0 2 C0 1.34 0 0.68 0 0 Z " fill="#90408D" transform="translate(127,174)"/>
<path d="M0 0 C1.98 0.66 3.96 1.32 6 2 C2.76680553 4.15546298 0.83103042 4.68074747 -3 5 C-3.99 4.34 -4.98 3.68 -6 3 C-4.02 2.67 -2.04 2.34 0 2 C0 1.34 0 0.68 0 0 Z " fill="#9E4286" transform="translate(250,46)"/>
<path d="M0 0 C0.33 0.99 0.66 1.98 1 3 C3.50447516 4.21869929 3.50447516 4.21869929 6 5 C6 5.33 6 5.66 6 6 C4.35 6 2.7 6 1 6 C1 6.66 1 7.32 1 8 C0.01 7.67 -0.98 7.34 -2 7 C-1.34 4.69 -0.68 2.38 0 0 Z " fill="#8B3E83" transform="translate(160,145)"/>
<path d="M0 0 C1.32 1.32 2.64 2.64 4 4 C2.68 4.99 1.36 5.98 0 7 C-1.32 5.68 -2.64 4.36 -4 3 C-2.68 3.33 -1.36 3.66 0 4 C0 2.68 0 1.36 0 0 Z " fill="#A03F8F" transform="translate(263,93)"/>
<path d="M0 0 C3.96 0 7.92 0 12 0 C12 0.33 12 0.66 12 1 C10.58461283 1.33872513 9.16762037 1.67074624 7.75 2 C6.96109375 2.185625 6.1721875 2.37125 5.359375 2.5625 C3 3 3 3 -1 3 C-0.67 2.01 -0.34 1.02 0 0 Z " fill="#954581" transform="translate(182,44)"/>
<path d="M0 0 C1.65 0 3.3 0 5 0 C5.33 1.32 5.66 2.64 6 4 C5.01 4.495 5.01 4.495 4 5 C2 3.625 2 3.625 0 2 C0 1.34 0 0.68 0 0 Z " fill="#662E93" transform="translate(165,227)"/>
<path d="M0 0 C2.71631546 0.90543849 5.34771188 1.92474806 8 3 C8 3.33 8 3.66 8 4 C5.03 4 2.06 4 -1 4 C-0.67 2.68 -0.34 1.36 0 0 Z " fill="#4E2472" transform="translate(286,202)"/>
<path d="M0 0 C0.66 0.33 1.32 0.66 2 1 C1.34 3.64 0.68 6.28 0 9 C-2 7 -2 7 -2.25 4.5 C-2 2 -2 2 0 0 Z " fill="#8737A1" transform="translate(190,190)"/>
<path d="M0 0 C0 1.32 0 2.64 0 4 C0.66 4.33 1.32 4.66 2 5 C0.02 5.66 -1.96 6.32 -4 7 C-3.814375 6.38125 -3.62875 5.7625 -3.4375 5.125 C-2.76313824 2.95839822 -2.76313824 2.95839822 -4 1 C-2 0 -2 0 0 0 Z " fill="#95418A" transform="translate(255,115)"/>
<path d="M0 0 C1.41750563 0.11509661 2.83401169 0.24253658 4.25 0.375 C5.03890625 0.44460937 5.8278125 0.51421875 6.640625 0.5859375 C9 1 9 1 13 3 C8.71 3 4.42 3 0 3 C0 2.01 0 1.02 0 0 Z " fill="#8D3978" transform="translate(216,73)"/>
<path d="M0 0 C1.65 0.33 3.3 0.66 5 1 C5 1.99 5 2.98 5 4 C2.69 3.67 0.38 3.34 -2 3 C-1.34 2.01 -0.68 1.02 0 0 Z " fill="#652F97" transform="translate(200,252)"/>
<path d="M0 0 C0.33 0 0.66 0 1 0 C1 1.98 1 3.96 1 6 C-0.98 6.33 -2.96 6.66 -5 7 C-4.01 6.67 -3.02 6.34 -2 6 C-1.855625 5.195625 -1.71125 4.39125 -1.5625 3.5625 C-1 1 -1 1 0 0 Z " fill="#662D9E" transform="translate(302,190)"/>
<path d="M0 0 C1.5625 1.1875 1.5625 1.1875 3 3 C2.6875 5.6875 2.6875 5.6875 2 8 C1.34 8 0.68 8 0 8 C0 5.36 0 2.72 0 0 Z " fill="#76349F" transform="translate(245,188)"/>
<path d="M0 0 C0.66 0.33 1.32 0.66 2 1 C1.67 3.31 1.34 5.62 1 8 C0.67 7.34 0.34 6.68 0 6 C-0.66 6 -1.32 6 -2 6 C-1.34 4.02 -0.68 2.04 0 0 Z " fill="#903C98" transform="translate(204,159)"/>
<path d="M0 0 C1.485 0.99 1.485 0.99 3 2 C3 2.99 3 3.98 3 5 C3.66 5.66 4.32 6.32 5 7 C3.35 7 1.7 7 0 7 C0 4.69 0 2.38 0 0 Z " fill="#9B3BA7" transform="translate(275,133)"/>
<path d="M0 0 C1.98 0.66 3.96 1.32 6 2 C4.35 3.32 2.7 4.64 1 6 C1 4.68 1 3.36 1 2 C-0.32 2.33 -1.64 2.66 -3 3 C-2.01 2.01 -1.02 1.02 0 0 Z " fill="#903A89" transform="translate(230,129)"/>
<path d="M0 0 C0 1.32 0 2.64 0 4 C-1.32 4.33 -2.64 4.66 -4 5 C-4.33 3.68 -4.66 2.36 -5 1 C-3 0 -3 0 0 0 Z " fill="#C454AC" transform="translate(99,111)"/>
<path d="M0 0 C0.99 0.99 1.98 1.98 3 3 C2.34 4.32 1.68 5.64 1 7 C0.34 6.67 -0.32 6.34 -1 6 C-1.042721 4.33388095 -1.04063832 2.66617115 -1 1 C-0.67 0.67 -0.34 0.34 0 0 Z " fill="#943E9B" transform="translate(228,149)"/>
<path d="M0 0 C1.32 0 2.64 0 4 0 C4 0.66 4 1.32 4 2 C3.01 2.66 2.02 3.32 1 4 C1.66 4.66 2.32 5.32 3 6 C1.68 6 0.36 6 -1 6 C-0.67 4.02 -0.34 2.04 0 0 Z " fill="#813585" transform="translate(266,142)"/>
<path d="M0 0 C0.78375 0.04125 1.5675 0.0825 2.375 0.125 C2.375 1.115 2.375 2.105 2.375 3.125 C0.065 3.455 -2.245 3.785 -4.625 4.125 C-4.625 0.73492581 -3.1763743 0.15125592 0 0 Z " fill="#C44BA8" transform="translate(247.625,45.875)"/>
<path d="M0 0 C0.66 0 1.32 0 2 0 C1.67 1.32 1.34 2.64 1 4 C0.34 4 -0.32 4 -1 4 C-1 5.65 -1 7.3 -1 9 C-1.33 9 -1.66 9 -2 9 C-2.125 5.625 -2.125 5.625 -2 2 C-1.34 1.34 -0.68 0.68 0 0 Z " fill="#8A3B86" transform="translate(124,166)"/>
<path d="M0 0 C2.475 0.495 2.475 0.495 5 1 C5 2.32 5 3.64 5 5 C3.68 4.67 2.36 4.34 1 4 C0.67 2.68 0.34 1.36 0 0 Z " fill="#C047A7" transform="translate(258,92)"/>
<path d="M0 0 C0.66 0.33 1.32 0.66 2 1 C1.01 2.485 1.01 2.485 0 4 C1.32 4.33 2.64 4.66 4 5 C2.35 5.33 0.7 5.66 -1 6 C-1.66 4.35 -2.32 2.7 -3 1 C-2.01 0.67 -1.02 0.34 0 0 Z " fill="#A2438B" transform="translate(155,80)"/>
<path d="M0 0 C1.32 0.66 2.64 1.32 4 2 C3.01 3.485 3.01 3.485 2 5 C0.68 5 -0.64 5 -2 5 C-1.34 3.35 -0.68 1.7 0 0 Z " fill="#C947AF" transform="translate(157,79)"/>
<path d="" fill="#000000" transform="translate(0,0)"/>
<path d="" fill="#000000" transform="translate(0,0)"/>
<path d="" fill="#000000" transform="translate(0,0)"/>
<path d="" fill="#000000" transform="translate(0,0)"/>
<path d="" fill="#000000" transform="translate(0,0)"/>
<path d="" fill="#000000" transform="translate(0,0)"/>
<path d="" fill="#000000" transform="translate(0,0)"/>
<path d="" fill="#000000" transform="translate(0,0)"/>
<path d="" fill="#000000" transform="translate(0,0)"/>
<path d="" fill="#000000" transform="translate(0,0)"/>
<path d="" fill="#000000" transform="translate(0,0)"/>
<path d="" fill="#000000" transform="translate(0,0)"/>
<path d="" fill="#000000" transform="translate(0,0)"/>
<path d="" fill="#000000" transform="translate(0,0)"/>
<path d="" fill="#000000" transform="translate(0,0)"/>
<path d="" fill="#000000" transform="translate(0,0)"/>
<path d="" fill="#000000" transform="translate(0,0)"/>
<path d="" fill="#000000" transform="translate(0,0)"/>
<path d="" fill="#000000" transform="translate(0,0)"/>
<path d="" fill="#000000" transform="translate(0,0)"/>
<path d="" fill="#000000" transform="translate(0,0)"/>
<path d="" fill="#000000" transform="translate(0,0)"/>
<path d="" fill="#000000" transform="translate(0,0)"/>
<path d="" fill="#000000" transform="translate(0,0)"/>
<path d="" fill="#000000" transform="translate(0,0)"/>
<path d="" fill="#000000" transform="translate(0,0)"/>
<path d="" fill="#000000" transform="translate(0,0)"/>
<path d="" fill="#000000" transform="translate(0,0)"/>
<path d="" fill="#000000" transform="translate(0,0)"/>
<path d="" fill="#000000" transform="translate(0,0)"/>
<path d="" fill="#000000" transform="translate(0,0)"/>
<path d="" fill="#000000" transform="translate(0,0)"/>
<path d="" fill="#000000" transform="translate(0,0)"/>
<path d="" fill="#000000" transform="translate(0,0)"/>
<path d="" fill="#000000" transform="translate(0,0)"/>
<path d="" fill="#000000" transform="translate(0,0)"/>
<path d="" fill="#000000" transform="translate(0,0)"/>
<path d="" fill="#000000" transform="translate(0,0)"/>
<path d="" fill="#000000" transform="translate(0,0)"/>
<path d="" fill="#000000" transform="translate(0,0)"/>
<path d="" fill="#000000" transform="translate(0,0)"/>
<path d="" fill="#000000" transform="translate(0,0)"/>
<path d="" fill="#000000" transform="translate(0,0)"/>
<path d="" fill="#000000" transform="translate(0,0)"/>
<path d="" fill="#000000" transform="translate(0,0)"/>
<path d="" fill="#000000" transform="translate(0,0)"/>
<path d="" fill="#000000" transform="translate(0,0)"/>
<path d="" fill="#000000" transform="translate(0,0)"/>
<path d="" fill="#000000" transform="translate(0,0)"/>
<path d="" fill="#000000" transform="translate(0,0)"/>
<path d="" fill="#000000" transform="translate(0,0)"/>
<path d="" fill="#000000" transform="translate(0,0)"/>
<path d="" fill="#000000" transform="translate(0,0)"/>
<path d="" fill="#000000" transform="translate(0,0)"/>
<path d="" fill="#000000" transform="translate(0,0)"/>
<path d="" fill="#000000" transform="translate(0,0)"/>
<path d="" fill="#000000" transform="translate(0,0)"/>
<path d="" fill="#000000" transform="translate(0,0)"/>
<path d="" fill="#000000" transform="translate(0,0)"/>
<path d="" fill="#000000" transform="translate(0,0)"/>
<path d="" fill="#000000" transform="translate(0,0)"/>
<path d="" fill="#000000" transform="translate(0,0)"/>
<path d="" fill="#000000" transform="translate(0,0)"/>
<path d="" fill="#000000" transform="translate(0,0)"/>
<path d="" fill="#000000" transform="translate(0,0)"/>
<path d="" fill="#000000" transform="translate(0,0)"/>
<path d="" fill="#000000" transform="translate(0,0)"/>
<path d="" fill="#000000" transform="translate(0,0)"/>
<path d="" fill="#000000" transform="translate(0,0)"/>
<path d="" fill="#000000" transform="translate(0,0)"/>
<path d="" fill="#000000" transform="translate(0,0)"/>
<path d="" fill="#000000" transform="translate(0,0)"/>
<path d="" fill="#000000" transform="translate(0,0)"/>
<path d="" fill="#000000" transform="translate(0,0)"/>
<path d="" fill="#000000" transform="translate(0,0)"/>
<path d="" fill="#000000" transform="translate(0,0)"/>
<path d="" fill="#000000" transform="translate(0,0)"/>
<path d="" fill="#000000" transform="translate(0,0)"/>
<path d="" fill="#000000" transform="translate(0,0)"/>
<path d="" fill="#000000" transform="translate(0,0)"/>
<path d="" fill="#000000" transform="translate(0,0)"/>
<path d="" fill="#000000" transform="translate(0,0)"/>
<path d="" fill="#000000" transform="translate(0,0)"/>
<path d="" fill="#000000" transform="translate(0,0)"/>
<path d="" fill="#000000" transform="translate(0,0)"/>
<path d="" fill="#000000" transform="translate(0,0)"/>
<path d="" fill="#000000" transform="translate(0,0)"/>
<path d="" fill="#000000" transform="translate(0,0)"/>
<path d="" fill="#000000" transform="translate(0,0)"/>
<path d="" fill="#000000" transform="translate(0,0)"/>
<path d="" fill="#000000" transform="translate(0,0)"/>
<path d="" fill="#000000" transform="translate(0,0)"/>
<path d="" fill="#000000" transform="translate(0,0)"/>
<path d="" fill="#000000" transform="translate(0,0)"/>
<path d="" fill="#000000" transform="translate(0,0)"/>
<path d="" fill="#000000" transform="translate(0,0)"/>
<path d="" fill="#000000" transform="translate(0,0)"/>
<path d="" fill="#000000" transform="translate(0,0)"/>
<path d="" fill="#000000" transform="translate(0,0)"/>
<path d="" fill="#000000" transform="translate(0,0)"/>
<path d="" fill="#000000" transform="translate(0,0)"/>
<path d="" fill="#000000" transform="translate(0,0)"/>
<path d="" fill="#000000" transform="translate(0,0)"/>
<path d="" fill="#000000" transform="translate(0,0)"/>
<path d="" fill="#000000" transform="translate(0,0)"/>
<path d="" fill="#000000" transform="translate(0,0)"/>
<path d="" fill="#000000" transform="translate(0,0)"/>
<path d="" fill="#000000" transform="translate(0,0)"/>
<path d="" fill="#000000" transform="translate(0,0)"/>
<path d="" fill="#000000" transform="translate(0,0)"/>
<path d="" fill="#000000" transform="translate(0,0)"/>
<path d="" fill="#000000" transform="translate(0,0)"/>
<path d="" fill="#000000" transform="translate(0,0)"/>
<path d="" fill="#000000" transform="translate(0,0)"/>
<path d="" fill="#000000" transform="translate(0,0)"/>
<path d="" fill="#000000" transform="translate(0,0)"/>
<path d="" fill="#000000" transform="translate(0,0)"/>
<path d="" fill="#000000" transform="translate(0,0)"/>
<path d="" fill="#000000" transform="translate(0,0)"/>
<path d="" fill="#000000" transform="translate(0,0)"/>
<path d="" fill="#000000" transform="translate(0,0)"/>
<path d="" fill="#000000" transform="translate(0,0)"/>
<path d="" fill="#000000" transform="translate(0,0)"/>
<path d="" fill="#000000" transform="translate(0,0)"/>
<path d="" fill="#000000" transform="translate(0,0)"/>
<path d="" fill="#000000" transform="translate(0,0)"/>
<path d="" fill="#000000" transform="translate(0,0)"/>
<path d="" fill="#000000" transform="translate(0,0)"/>
<path d="" fill="#000000" transform="translate(0,0)"/>
<path d="" fill="#000000" transform="translate(0,0)"/>
<path d="" fill="#000000" transform="translate(0,0)"/>
<path d="" fill="#000000" transform="translate(0,0)"/>
<path d="" fill="#000000" transform="translate(0,0)"/>
<path d="" fill="#000000" transform="translate(0,0)"/>
<path d="" fill="#000000" transform="translate(0,0)"/>
<path d="" fill="#000000" transform="translate(0,0)"/>
<path d="" fill="#000000" transform="translate(0,0)"/>
<path d="" fill="#000000" transform="translate(0,0)"/>
<path d="" fill="#000000" transform="translate(0,0)"/>
<path d="" fill="#000000" transform="translate(0,0)"/>
<path d="" fill="#000000" transform="translate(0,0)"/>
<path d="" fill="#000000" transform="translate(0,0)"/>
<path d="" fill="#000000" transform="translate(0,0)"/>
<path d="" fill="#000000" transform="translate(0,0)"/>
<path d="" fill="#000000" transform="translate(0,0)"/>
<path d="" fill="#000000" transform="translate(0,0)"/>
<path d="" fill="#000000" transform="translate(0,0)"/>
<path d="" fill="#000000" transform="translate(0,0)"/>
<path d="" fill="#000000" transform="translate(0,0)"/>
<path d="" fill="#000000" transform="translate(0,0)"/>
<path d="" fill="#000000" transform="translate(0,0)"/>
<path d="" fill="#000000" transform="translate(0,0)"/>
<path d="" fill="#000000" transform="translate(0,0)"/>
<path d="" fill="#000000" transform="translate(0,0)"/>
<path d="" fill="#000000" transform="translate(0,0)"/>
<path d="" fill="#000000" transform="translate(0,0)"/>
<path d="" fill="#000000" transform="translate(0,0)"/>
<path d="" fill="#000000" transform="translate(0,0)"/>
<path d="" fill="#000000" transform="translate(0,0)"/>
<path d="" fill="#000000" transform="translate(0,0)"/>
<path d="" fill="#000000" transform="translate(0,0)"/>
<path d="" fill="#000000" transform="translate(0,0)"/>
<path d="" fill="#000000" transform="translate(0,0)"/>
<path d="" fill="#000000" transform="translate(0,0)"/>
<path d="" fill="#000000" transform="translate(0,0)"/>
<path d="" fill="#000000" transform="translate(0,0)"/>
<path d="" fill="#000000" transform="translate(0,0)"/>
<path d="" fill="#000000" transform="translate(0,0)"/>
<path d="" fill="#000000" transform="translate(0,0)"/>
<path d="" fill="#000000" transform="translate(0,0)"/>
<path d="" fill="#000000" transform="translate(0,0)"/>
<path d="" fill="#000000" transform="translate(0,0)"/>
<path d="" fill="#000000" transform="translate(0,0)"/>
<path d="" fill="#000000" transform="translate(0,0)"/>
<path d="" fill="#000000" transform="translate(0,0)"/>
<path d="" fill="#000000" transform="translate(0,0)"/>
<path d="" fill="#000000" transform="translate(0,0)"/>
<path d="" fill="#000000" transform="translate(0,0)"/>
<path d="" fill="#000000" transform="translate(0,0)"/>
<path d="" fill="#000000" transform="translate(0,0)"/>
<path d="" fill="#000000" transform="translate(0,0)"/>
<path d="" fill="#000000" transform="translate(0,0)"/>
<path d="" fill="#000000" transform="translate(0,0)"/>
<path d="" fill="#000000" transform="translate(0,0)"/>
<path d="" fill="#000000" transform="translate(0,0)"/>
<path d="" fill="#000000" transform="translate(0,0)"/>
<path d="" fill="#000000" transform="translate(0,0)"/>
<path d="" fill="#000000" transform="translate(0,0)"/>
<path d="" fill="#000000" transform="translate(0,0)"/>
<path d="" fill="#000000" transform="translate(0,0)"/>
<path d="" fill="#000000" transform="translate(0,0)"/>
<path d="" fill="#000000" transform="translate(0,0)"/>
<path d="" fill="#000000" transform="translate(0,0)"/>
<path d="" fill="#000000" transform="translate(0,0)"/>
<path d="" fill="#000000" transform="translate(0,0)"/>
<path d="" fill="#000000" transform="translate(0,0)"/>
<path d="" fill="#000000" transform="translate(0,0)"/>
<path d="" fill="#000000" transform="translate(0,0)"/>
<path d="" fill="#000000" transform="translate(0,0)"/>
<path d="" fill="#000000" transform="translate(0,0)"/>
<path d="" fill="#000000" transform="translate(0,0)"/>
<path d="" fill="#000000" transform="translate(0,0)"/>
<path d="" fill="#000000" transform="translate(0,0)"/>
<path d="" fill="#000000" transform="translate(0,0)"/>
<path d="" fill="#000000" transform="translate(0,0)"/>
<path d="" fill="#000000" transform="translate(0,0)"/>
<path d="" fill="#000000" transform="translate(0,0)"/>
<path d="" fill="#000000" transform="translate(0,0)"/>
<path d="" fill="#000000" transform="translate(0,0)"/>
<path d="" fill="#000000" transform="translate(0,0)"/>
<path d="" fill="#000000" transform="translate(0,0)"/>
<path d="" fill="#000000" transform="translate(0,0)"/>
<path d="" fill="#000000" transform="translate(0,0)"/>
<path d="" fill="#000000" transform="translate(0,0)"/>
<path d="" fill="#000000" transform="translate(0,0)"/>
<path d="" fill="#000000" transform="translate(0,0)"/>
<path d="" fill="#000000" transform="translate(0,0)"/>
<path d="" fill="#000000" transform="translate(0,0)"/>
<path d="" fill="#000000" transform="translate(0,0)"/>
<path d="" fill="#000000" transform="translate(0,0)"/>
<path d="" fill="#000000" transform="translate(0,0)"/>
<path d="" fill="#000000" transform="translate(0,0)"/>
<path d="" fill="#000000" transform="translate(0,0)"/>
<path d="" fill="#000000" transform="translate(0,0)"/>
<path d="" fill="#000000" transform="translate(0,0)"/>
<path d="" fill="#000000" transform="translate(0,0)"/>
<path d="" fill="#000000" transform="translate(0,0)"/>
<path d="" fill="#000000" transform="translate(0,0)"/>
<path d="" fill="#000000" transform="translate(0,0)"/>
<path d="" fill="#000000" transform="translate(0,0)"/>
<path d="" fill="#000000" transform="translate(0,0)"/>
<path d="" fill="#000000" transform="translate(0,0)"/>
<path d="" fill="#000000" transform="translate(0,0)"/>
<path d="" fill="#000000" transform="translate(0,0)"/>
<path d="" fill="#000000" transform="translate(0,0)"/>
<path d="" fill="#000000" transform="translate(0,0)"/>
<path d="" fill="#000000" transform="translate(0,0)"/>
<path d="" fill="#000000" transform="translate(0,0)"/>
<path d="" fill="#000000" transform="translate(0,0)"/>
<path d="" fill="#000000" transform="translate(0,0)"/>
<path d="" fill="#000000" transform="translate(0,0)"/>
<path d="" fill="#000000" transform="translate(0,0)"/>
<path d="" fill="#000000" transform="translate(0,0)"/>
<path d="" fill="#000000" transform="translate(0,0)"/>
<path d="" fill="#000000" transform="translate(0,0)"/>
<path d="" fill="#000000" transform="translate(0,0)"/>
<path d="" fill="#000000" transform="translate(0,0)"/>
<path d="" fill="#000000" transform="translate(0,0)"/>
<path d="" fill="#000000" transform="translate(0,0)"/>
<path d="" fill="#000000" transform="translate(0,0)"/>
<path d="" fill="#000000" transform="translate(0,0)"/>
<path d="" fill="#000000" transform="translate(0,0)"/>
<path d="" fill="#000000" transform="translate(0,0)"/>
<path d="" fill="#000000" transform="translate(0,0)"/>
<path d="" fill="#000000" transform="translate(0,0)"/>
<path d="" fill="#000000" transform="translate(0,0)"/>
<path d="" fill="#000000" transform="translate(0,0)"/>
<path d="" fill="#000000" transform="translate(0,0)"/>
<path d="" fill="#000000" transform="translate(0,0)"/>
<path d="" fill="#000000" transform="translate(0,0)"/>
<path d="" fill="#000000" transform="translate(0,0)"/>
<path d="" fill="#000000" transform="translate(0,0)"/>
<path d="" fill="#000000" transform="translate(0,0)"/>
<path d="" fill="#000000" transform="translate(0,0)"/>
<path d="" fill="#000000" transform="translate(0,0)"/>
<path d="" fill="#000000" transform="translate(0,0)"/>
<path d="" fill="#000000" transform="translate(0,0)"/>
<path d="" fill="#000000" transform="translate(0,0)"/>
<path d="" fill="#000000" transform="translate(0,0)"/>
<path d="" fill="#000000" transform="translate(0,0)"/>
<path d="" fill="#000000" transform="translate(0,0)"/>
<path d="" fill="#000000" transform="translate(0,0)"/>
<path d="" fill="#000000" transform="translate(0,0)"/>
<path d="" fill="#000000" transform="translate(0,0)"/>
<path d="" fill="#000000" transform="translate(0,0)"/>
<path d="" fill="#000000" transform="translate(0,0)"/>
<path d="" fill="#000000" transform="translate(0,0)"/>
<path d="" fill="#000000" transform="translate(0,0)"/>
<path d="" fill="#000000" transform="translate(0,0)"/>
<path d="" fill="#000000" transform="translate(0,0)"/>
<path d="" fill="#000000" transform="translate(0,0)"/>
<path d="" fill="#000000" transform="translate(0,0)"/>
<path d="" fill="#000000" transform="translate(0,0)"/>
<path d="" fill="#000000" transform="translate(0,0)"/>
<path d="" fill="#000000" transform="translate(0,0)"/>
</svg>
